<?xml version="1.0" standalone="no"?>
<!DOCTYPE svg PUBLIC "-//W3C//DTD SVG 1.1//EN" "http://www.w3.org/Graphics/SVG/1.1/DTD/svg11.dtd" >
<svg xmlns="http://www.w3.org/2000/svg" xmlns:xlink="http://www.w3.org/1999/xlink" version="1.1">
<metadata></metadata>
<defs>
<font id="kickerregular_upright" horiz-adv-x="1206" >
<font-face units-per-em="2048" ascent="1638" descent="-410" />
<missing-glyph horiz-adv-x="452" />
<glyph horiz-adv-x="0" />
<glyph horiz-adv-x="682" />
<glyph unicode=" "  horiz-adv-x="452" />
<glyph unicode="&#x09;" horiz-adv-x="452" />
<glyph unicode="&#xa0;" horiz-adv-x="452" />
<glyph unicode="!" horiz-adv-x="559" d="M190 0v240h177v-240h-177zM190 1380h177l-15 -1018h-145z" />
<glyph unicode="&#x22;" horiz-adv-x="694" d="M109 1380h165l-22 -452h-123zM422 1380h165l-22 -452h-123z" />
<glyph unicode="#" horiz-adv-x="1503" d="M109 412v137h266l63 340h-268v137h295l65 354h166l-65 -354h340l65 354h168l-67 -354h258v-137h-283l-65 -340h286v-137h-311l-78 -412h-166l78 412h-340l-78 -412h-166l78 412h-241zM541 549h340l63 340h-340z" />
<glyph unicode="$" horiz-adv-x="1107" d="M78 49l12 158q90 -27 212 -42t226 -15q154 0 228.5 50t74.5 177q0 70 -20 109.5t-61 63t-119 48.5l-256 82q-139 43 -210 125t-71 237q0 186 92.5 270.5t300.5 88.5v260h175v-266q150 -14 303 -66l-13 -155q-98 27 -207.5 42t-203.5 15q-137 0 -195.5 -41t-58.5 -143 q0 -88 37.5 -126t126.5 -69l266 -88q160 -53 233.5 -138t73.5 -255q0 -187 -89 -278t-273 -107v-275h-175v269q-213 6 -409 69z" />
<glyph unicode="%" horiz-adv-x="1656" d="M47 1008v113q0 96 21.5 153.5t80 87t168.5 29.5q113 0 172.5 -29.5t81 -86t21.5 -154.5v-113q0 -98 -21.5 -154.5t-81 -86t-172.5 -29.5t-171 29.5t-78.5 86t-20.5 154.5zM215 994q0 -66 19.5 -91.5t82.5 -25.5q66 0 86.5 25.5t20.5 91.5v141q0 66 -21.5 92.5t-85.5 26.5 q-61 0 -81.5 -26.5t-20.5 -92.5v-141zM332 0l799 1380h186l-793 -1380h-192zM1065 258v113q0 96 21.5 153.5t80 87t168.5 29.5q113 0 172.5 -29.5t81 -86t21.5 -154.5v-113q0 -98 -21.5 -154.5t-81 -86t-172.5 -29.5t-171 29.5t-78.5 86t-20.5 154.5zM1233 244 q0 -66 19.5 -91.5t82.5 -25.5q66 0 86.5 25.5t20.5 91.5v141q0 66 -21.5 92.5t-85.5 26.5q-61 0 -81.5 -26.5t-20.5 -92.5v-141z" />
<glyph unicode="&#x26;" horiz-adv-x="1376" d="M129 369q0 164 61.5 256t192.5 143q-135 184 -135 313q0 156 94 240t272 84q190 0 284.5 -80t102.5 -256v-35h-153v23q-12 201 -213 200q-102 0 -151.5 -45t-49.5 -143q0 -119 177 -324.5t433 -418.5q47 119 48 323h159q0 -250 -52 -395t-178 -212t-355 -67 q-285 0 -411 99.5t-126 294.5zM313 385q0 -256 314 -256h75q168 0 256 76q-295 225 -487 450q-80 -39 -119 -103.5t-39 -166.5z" />
<glyph unicode="'" horiz-adv-x="380" d="M109 1380h165l-22 -452h-123z" />
<glyph unicode="(" horiz-adv-x="735" d="M121 307v549q0 201 41 320.5t161.5 185t354.5 65.5v-165q-158 0 -238 -50.5t-103.5 -134.5t-23.5 -219v-551q0 -160 34 -247t112 -123.5t219 -36.5v-168q-213 0 -333 52t-172 176t-52 347z" />
<glyph unicode=")" horiz-adv-x="735" d="M57 -100q142 0 219.5 36.5t111.5 123.5t34 247v551q0 135 -23.5 219t-103.5 134.5t-238 50.5v165q233 0 354 -65.5t162 -185t41 -320.5v-549q0 -223 -52 -347t-172 -176t-333 -52v168z" />
<glyph unicode="*" horiz-adv-x="808" d="M109 983l221 100l-221 101l57 98l203 -135l-19 235h111l-21 -235l203 133l59 -96l-223 -101l223 -102l-57 -96l-203 137l19 -238h-111l17 236l-201 -135z" />
<glyph unicode="+" horiz-adv-x="722" d="M109 440v138h184v188h137v-188h184v-138h-184v-186h-137v186h-184z" />
<glyph unicode="," horiz-adv-x="509" d="M109 -254l133 418h159l-168 -418h-124z" />
<glyph unicode="-" horiz-adv-x="727" d="M109 436v144h509v-144h-509z" />
<glyph unicode="." horiz-adv-x="391" d="M109 0v240h174v-240h-174z" />
<glyph unicode="/" horiz-adv-x="829" d="M-55 -236l684 1657h178l-686 -1657h-176z" />
<glyph unicode="0" horiz-adv-x="1333" d="M121 567v248q0 227 50 353t167 180.5t328 54.5t328.5 -54.5t167.5 -180.5t50 -353v-248q0 -227 -50 -354t-167.5 -181.5t-328.5 -54.5t-328 54.5t-167 180.5t-50 355zM317 553q0 -160 32 -247t105.5 -124t211.5 -37q135 0 209.5 37t106.5 125t32 246v281q0 156 -32 241.5 t-106.5 122.5t-209.5 37q-137 0 -211 -37t-106 -122t-32 -242v-281z" />
<glyph unicode="1" horiz-adv-x="739" d="M29 1100v176l360 104h158v-1380h-195v1188z" />
<glyph unicode="2" horiz-adv-x="1077" d="M82 0v152l524 575q63 72 95 114t49.5 90t17.5 111q0 84 -51 136.5t-158 52.5q-113 0 -214 -18.5t-216 -55.5l-12 154q121 47 228.5 69.5t240.5 22.5q193 0 288 -85t95 -245q0 -90 -24.5 -160.5t-67.5 -130t-121 -145.5l-418 -465h661v-172h-917z" />
<glyph unicode="3" horiz-adv-x="1052" d="M63 53l15 164q129 -37 228.5 -53.5t219.5 -16.5q150 0 215.5 57.5t65.5 198.5q0 106 -47 159.5t-113.5 69t-159.5 15.5h-204v127l348 424v10h-533v172h787v-155l-383 -445h47q113 0 214 -36.5t168.5 -124t67.5 -228.5q0 -213 -117.5 -313.5t-353.5 -100.5 q-122 0 -223.5 18.5t-241.5 57.5z" />
<glyph unicode="4" horiz-adv-x="1214" d="M41 291v184l651 905h277v-917h205v-172h-205v-291h-195v291h-733zM254 463h520v702h-31l-489 -678v-24z" />
<glyph unicode="5" horiz-adv-x="1083" d="M68 57l14 162q123 -37 227.5 -55.5t220.5 -18.5q141 0 210 55.5t69 196.5q0 106 -42 160.5t-114.5 72t-189.5 17.5h-256l-51 35l86 698h698v-172h-534l-58 -405h125q168 0 282.5 -36t179 -128t64.5 -260q0 -207 -116.5 -304.5t-337.5 -97.5q-123 0 -229.5 19.5 t-247.5 60.5z" />
<glyph unicode="6" horiz-adv-x="1202" d="M104 483v326q0 270 115 427t363 157q119 0 246.5 -26t218.5 -60l-13 -154q-246 68 -420 68q-322 0 -321 -359v-80q115 78 217 109t211 31q197 0 295 -108.5t98 -295.5v-55q0 -160 -44 -264.5t-153.5 -160.5t-304.5 -56q-174 0 -284.5 47t-167 156.5t-56.5 297.5zM293 436 q0 -100 27.5 -160.5t98 -90t197.5 -29.5q176 0 243 64.5t67 209.5v113q0 104 -64.5 162.5t-197.5 58.5q-82 0 -170 -28.5t-201 -102.5v-197z" />
<glyph unicode="7" horiz-adv-x="1040" d="M70 1208v172h929v-125l-596 -1255h-215l582 1194v14h-700z" />
<glyph unicode="8" horiz-adv-x="1239" d="M121 358v45q0 135 56 216t175 118q-182 72 -182 279v37q0 129 43 204.5t139.5 109.5t261.5 34q168 0 266.5 -34t141.5 -109.5t43 -204.5v-35q0 -209 -178 -281q119 -37 175 -118.5t56 -217.5v-41q0 -139 -47 -221t-155.5 -118.5t-299.5 -36.5q-182 0 -289.5 36.5 t-156.5 118.5t-49 219zM297 377q0 -135 74.5 -189.5t249.5 -54.5q123 0 192.5 23.5t99 76t29.5 146.5v43q0 94 -30.5 148.5t-100.5 78t-193 23.5t-192.5 -23.5t-99 -78t-29.5 -148.5v-45zM342 997q0 -111 61.5 -154.5t214.5 -43.5q152 0 214.5 44t62.5 154v41 q0 117 -63.5 164t-213.5 47q-152 0 -214 -47t-62 -162v-43z" />
<glyph unicode="9" horiz-adv-x="1202" d="M88 860v55q0 160 44 264.5t154.5 161t305.5 56.5q174 0 284.5 -47t167 -157t56.5 -296v-328q0 -268 -116 -425.5t-363 -157.5q-117 0 -243 25.5t-222 60.5l14 155q233 -70 418 -69q322 0 321 360v78q-115 -76 -217 -106.5t-211 -30.5q-197 0 -295 108.5t-98 292.5z M279 838q0 -223 262 -224q77 0 166.5 30t201.5 101v199q0 100 -27.5 160.5t-98 90.5t-197.5 30q-119 0 -185.5 -30t-94 -88t-27.5 -157v-112z" />
<glyph unicode=":" horiz-adv-x="391" d="M109 0v240h174v-240h-174zM109 834v240h174v-240h-174z" />
<glyph unicode=";" horiz-adv-x="524" d="M109 -254l133 418h159l-168 -418h-124zM236 831v240h174v-240h-174z" />
<glyph unicode="&#x3c;" horiz-adv-x="972" d="M109 461v137l755 346v-164l-571 -250l571 -251v-162z" />
<glyph unicode="=" horiz-adv-x="727" d="M109 289v144h509v-144h-509zM109 608v144h509v-144h-509z" />
<glyph unicode="&#x3e;" horiz-adv-x="972" d="M109 117v162l571 251l-571 250v164l755 -346v-137z" />
<glyph unicode="?" horiz-adv-x="870" d="M51 1325q119 45 198 61.5t175 16.5q197 0 303.5 -83t106.5 -257q0 -188 -114 -301t-253 -189l-4 -206h-152l-6 268q141 63 241.5 155.5t100.5 241.5q0 109 -68.5 162t-177.5 53q-96 0 -162.5 -13t-172.5 -48zM299 0v240h176v-240h-176z" />
<glyph unicode="@" horiz-adv-x="1855" d="M121 518q0 281 83 451t261 248.5t471 78.5t467 -68.5t253 -215t79 -391.5q0 -176 -41 -283t-131 -156t-240 -49q-104 0 -167.5 39t-63.5 113q0 16 2 26q-53 -74 -145.5 -127t-186.5 -53q-121 0 -190.5 89t-65.5 229l6 71q6 123 55 211t127 134t168 46q119 0 271 -143 l20 121l156 -6l-84 -559q-10 -63 37 -90t90 -27q166 0 235.5 100.5t69.5 310.5q0 219 -72 350.5t-229.5 192t-421.5 60.5t-426 -71t-236.5 -224.5t-74.5 -407.5q0 -244 73.5 -392.5t231 -217t413.5 -68.5q127 0 228.5 19.5t216.5 62.5l18 -65q-111 -51 -219 -73t-241 -22 q-285 0 -459 76t-256 242t-82 438zM664 463q-2 -86 45 -142.5t116 -56.5q47 0 104.5 30t102.5 77t55 98l29 166q-61 80 -115.5 118t-93.5 38q-63 0 -117.5 -35t-88 -97.5t-33.5 -144.5z" />
<glyph unicode="A" horiz-adv-x="1282" d="M57 0l367 1380h434l367 -1380h-199l-84 315h-602l-84 -315h-199zM385 487h512l-195 725h-124z" />
<glyph unicode="B" horiz-adv-x="1239" d="M193 0v1380h520q373 0 372 -311v-39q0 -121 -38.5 -207t-135.5 -123v-26q267 -41 267 -291v-49q0 -172 -101.5 -253t-316.5 -81h-567zM387 168h348q246 0 246 190v58q0 90 -53.5 138t-177.5 48h-363v-434zM387 760h307q102 0 150.5 50t48.5 183v47q0 172 -197 172h-309 v-452z" />
<glyph unicode="C" horiz-adv-x="1257" d="M121 559v270q0 184 34.5 303t155.5 194t365 75q111 0 243 -22.5t216 -61.5v-649h-179v516q-106 45 -278 45q-170 0 -248 -51.5t-95.5 -128t-17.5 -213.5v-279q0 -152 18.5 -229.5t98.5 -126.5t258 -49q158 0 430 41l8 -158q-139 -27 -240.5 -42.5t-205.5 -15.5 q-252 0 -374 76t-155.5 195t-33.5 311z" />
<glyph unicode="D" horiz-adv-x="1376" d="M190 0v1380h428q232 0 363 -35.5t202.5 -154.5t71.5 -361v-270q0 -221 -54 -340t-189 -169t-391 -50h-431zM385 172h260q150 0 239 32t133 114.5t44 236.5v276q0 133 -33 213t-123 122t-260 42h-260v-1036z" />
<glyph unicode="E" horiz-adv-x="1124" d="M190 0v1380h838v-172h-641v-479h598v-168h-598v-389h651v-172h-848z" />
<glyph unicode="F" horiz-adv-x="1075" d="M190 0v1380h828v-172h-631v-536h543v-168h-543v-504h-197z" />
<glyph unicode="G" horiz-adv-x="1273" d="M121 559v270q0 186 36 305t160.5 193t378.5 74q106 0 196.5 -13.5t201.5 -39.5l-9 -156q-184 37 -393 37q-176 0 -257 -50.5t-99.5 -129t-18.5 -222.5v-311q0 -127 19.5 -197.5t104.5 -118.5t270 -48q96 0 245 30v525h181v-641q-111 -39 -214.5 -64t-226.5 -25 q-252 0 -376.5 74t-161.5 194t-37 314z" />
<glyph unicode="H" horiz-adv-x="1447" d="M190 0v1380h197v-696h676v696h194v-1380h-194v512h-676v-512h-197z" />
<glyph unicode="I" horiz-adv-x="577" d="M190 0v1380h195v-1380h-195z" />
<glyph unicode="J" horiz-adv-x="837" d="M16 18l7 160q63 -12 140 -20t124 -8q98 0 144 54t46 191v985h195v-993q0 -410 -348 -410q-119 0 -308 41z" />
<glyph unicode="K" horiz-adv-x="1269" d="M190 0v1380h195v-682h299l248 682h213l-301 -751l385 -629h-219l-330 526h-295v-526h-195z" />
<glyph unicode="L" horiz-adv-x="991" d="M190 0v1380h195v-1208h590v-172h-785z" />
<glyph unicode="M" horiz-adv-x="1855" d="M190 0v1380h418l281 -1208h80l278 1208h418v-1380h-195v1208h-73l-293 -1208h-350l-293 1208h-76v-1208h-195z" />
<glyph unicode="N" horiz-adv-x="1464" d="M190 0v1380h410l418 -1208h59v1208h195v-1380h-400l-419 1208h-68v-1208h-195z" />
<glyph unicode="O" horiz-adv-x="1384" d="M121 567v248q0 195 33.5 314.5t157.5 195.5t380 76q254 0 379 -77t159 -196.5t34 -312.5v-248q0 -213 -43 -338t-166 -188.5t-363 -63.5t-363.5 63.5t-165.5 187.5t-42 339zM317 559q0 -156 25 -239.5t104.5 -125.5t245.5 -42q164 0 245 42t105.5 125.5t24.5 239.5v266 q0 141 -20.5 223t-101.5 131.5t-253 49.5t-253 -49.5t-101.5 -130t-20.5 -224.5v-266z" />
<glyph unicode="P" horiz-adv-x="1255" d="M190 0v1380h582q209 0 303 -96t94 -309v-227q0 -207 -92 -303.5t-305 -96.5h-387v-348h-195zM385 518h348q90 0 141.5 18.5t76 68.5t24.5 147v213q0 92 -21.5 144t-74 75.5t-146.5 23.5h-348v-690z" />
<glyph unicode="Q" horiz-adv-x="1376" d="M121 567v248q0 195 33.5 314.5t157.5 195.5t380 76q254 0 379 -77t159 -196.5t34 -312.5v-248q0 -197 -46.5 -298t-170.5 -126v-4l331 11v-173h-678h-8q-240 0 -363.5 63.5t-165.5 187.5t-42 339zM317 559q0 -156 25 -239.5t104.5 -125.5t245.5 -42q164 0 245 42 t105.5 125.5t24.5 239.5v266q0 141 -20.5 223t-101.5 131.5t-253 49.5t-253 -49.5t-101.5 -130t-20.5 -224.5v-266z" />
<glyph unicode="R" horiz-adv-x="1304" d="M190 0v1380h578q145 0 232 -35.5t128 -117.5t41 -221v-88q0 -175 -62.5 -261t-211.5 -102v-10q268 -37 268 -285v-260h-192v231q0 113 -66.5 166.5t-177.5 53.5h-342v-451h-195zM385 618h342q131 0 189.5 54.5t58.5 201.5v109q0 129 -52.5 177t-189.5 48h-348v-590z" />
<glyph unicode="S" horiz-adv-x="1075" d="M84 43l12 156q94 -21 217 -35t224 -14q131 0 195.5 51t64.5 168q0 74 -20.5 115.5t-64.5 65t-130 48.5l-156 49q-160 39 -244 137.5t-84 251.5q0 184 99.5 274.5t302.5 90.5q115 0 209 -12.5t213 -45.5l-11 -153q-96 18 -196.5 29.5t-173.5 11.5q-131 0 -188.5 -44 t-57.5 -159q0 -88 47 -132t143 -71l174 -55q172 -51 252 -136t80 -251q0 -205 -111.5 -304t-338.5 -99q-123 0 -231.5 16t-225.5 47z" />
<glyph unicode="T" horiz-adv-x="1024" d="M25 1208v172h974v-172h-391v-1208h-194v1208h-389z" />
<glyph unicode="U" horiz-adv-x="1380" d="M166 481v899h192v-903q0 -115 18.5 -180.5t90.5 -105t223 -39.5q150 0 221.5 39.5t90 106.5t18.5 181v901h194v-899q0 -174 -34.5 -278.5t-148 -165t-341.5 -60.5q-227 0 -340.5 60.5t-148.5 165t-35 278.5z" />
<glyph unicode="V" horiz-adv-x="1261" d="M57 1380h197l324 -1218h104l324 1218h198l-373 -1380h-401z" />
<glyph unicode="W" horiz-adv-x="1966" d="M57 1382h197l254 -1187h80l215 1185h364l215 -1183h78l252 1183h197l-295 -1380h-391l-197 1163h-80l-198 -1163h-394z" />
<glyph unicode="X" horiz-adv-x="1253" d="M49 0l322 645l-287 735h209l239 -663h187l239 663h209l-286 -735l321 -645h-209l-276 545h-182l-275 -545h-211z" />
<glyph unicode="Y" horiz-adv-x="1175" d="M35 1380h215l321 -782h33l322 782h215l-457 -1018v-362h-195v367z" />
<glyph unicode="Z" horiz-adv-x="1077" d="M66 0v145l682 1047v14h-662v174h909v-139l-682 -1053v-16h705v-172h-952z" />
<glyph unicode="[" horiz-adv-x="761" d="M190 -266v1691h451v-168h-258v-1357h258v-166h-451z" />
<glyph unicode="\" horiz-adv-x="829" d="M23 1421h178l684 -1657h-176z" />
<glyph unicode="]" horiz-adv-x="720" d="M117 -100h260v1357h-260v168h450v-1691h-450v166z" />
<glyph unicode="^" horiz-adv-x="1044" d="M109 893l346 508h135l346 -508h-164l-250 387l-250 -387h-163z" />
<glyph unicode="_" horiz-adv-x="935" d="M10 -170h916v-70h-916v70z" />
<glyph unicode="`" horiz-adv-x="411" d="M20 1380h193l102 -198h-157z" />
<glyph unicode="a" d="M109 418v145q0 276 91 402.5t277 126.5q96 0 189.5 -33t207.5 -94l23 104h154v-1069h-179l-10 500q-127 -260 -235.5 -388t-243.5 -128q-117 0 -195.5 97t-78.5 337zM297 401q0 -141 32.5 -190t88.5 -49q53 0 110.5 68.5t125 192.5t200.5 390q-119 63 -192.5 91 t-147.5 28q-217 0 -217 -375v-156z" />
<glyph unicode="b" d="M156 82v1298l184 13v-838q88 182 156.5 294t148.5 175t174 63q123 0 201 -90t78 -342v-149q0 -279 -92.5 -402.5t-296.5 -123.5q-125 0 -255 25.5t-298 76.5zM340 209q156 -70 332 -70q121 0 179 90t58 285v143q0 150 -31.5 201t-91.5 51q-51 0 -107 -68.5t-123 -192.5 t-196 -382l-20 -43v-14z" />
<glyph unicode="c" horiz-adv-x="1034" d="M109 442v179q0 160 33.5 260t125.5 155.5t264 55.5q98 0 212 -27t190 -64l-2 -376l-156 -39v301q-109 45 -203 45q-160 0 -218 -66.5t-58 -216.5v-225q0 -131 39 -207t162 -76q86 0 190.5 37t237.5 105l14 -150q-125 -70 -236.5 -111.5t-216.5 -41.5q-201 0 -289.5 112.5 t-88.5 349.5z" />
<glyph unicode="d" d="M109 418v143q0 279 90 405t278 126q98 0 185.5 -31t199.5 -88v407l189 13v-1393h-179l-10 500q-133 -260 -244.5 -388t-242.5 -128q-111 0 -188.5 98t-77.5 336zM297 414q0 -152 28.5 -202t84.5 -50q55 0 114.5 67.5t128 193.5t201.5 388q-125 68 -193.5 94.5 t-144.5 26.5q-219 0 -219 -375v-143z" />
<glyph unicode="e" horiz-adv-x="1011" d="M109 444v179q0 231 106.5 350t345.5 119q203 0 286 -78t83 -197q0 -98 -58.5 -166.5t-183.5 -130t-387 -164.5q8 -102 54 -158.5t147 -56.5q137 0 424 142l12 -152q-127 -70 -233.5 -110.5t-225.5 -40.5q-203 0 -286.5 120.5t-83.5 343.5zM297 520q221 88 301 125 t113.5 72t33.5 90q0 57 -41.5 92t-132.5 35q-149 0 -211.5 -68.5t-62.5 -218.5v-127z" />
<glyph unicode="f" horiz-adv-x="700" d="M45 909v162h168v59q0 135 53 215t193 80q63 0 123.5 -14t160.5 -49l-20 -133q-70 23 -114 33t-81 10q-65 0 -96 -43t-31 -129v-29h275v-162h-275v-909h-188v909h-168z" />
<glyph unicode="g" d="M109 428v135q0 276 91 402.5t277 126.5q94 0 185.5 -33t209.5 -92l25 102h154v-1069q0 -195 -102.5 -280t-286.5 -85q-207 0 -455 91l-4 151q106 -35 226 -58.5t204 -23.5q109 0 169 52.5t60 183.5v495q-96 -180 -168.5 -287.5t-147.5 -164t-163 -56.5q-121 0 -197.5 86 t-76.5 324zM297 414q0 -141 32.5 -191.5t88.5 -50.5q53 0 110.5 66.5t127 192.5t198.5 382q-119 63 -192.5 91t-147.5 28q-217 0 -217 -375v-143z" />
<glyph unicode="h" horiz-adv-x="1218" d="M156 0v1380l188 13v-967q106 276 177 413.5t140.5 195t169.5 57.5q123 0 184.5 -105.5t61.5 -279.5v-707h-188v682q0 98 -18.5 156.5t-75.5 58.5q-49 0 -93.5 -55.5t-102.5 -179t-189 -426.5l-103 -236h-151z" />
<glyph unicode="i" horiz-adv-x="497" d="M154 1190v215h192v-215h-192zM156 0v1071h188v-1071h-188z" />
<glyph unicode="j" horiz-adv-x="518" d="M-47 -238q100 53 142 81t61.5 62t19.5 91v1075h189v-1085q0 -86 -31 -142.5t-104.5 -104.5t-219.5 -108zM179 1188v215h192v-215h-192z" />
<glyph unicode="k" horiz-adv-x="1091" d="M156 0v1380l188 13v-1098l231 303q169 225 169 438q0 16 -1 33h187q1 -24 1 -48q0 -137 -40 -237q-47 -116 -160 -260l328 -524h-215l-228 377l-294 -377h-166z" />
<glyph unicode="l" horiz-adv-x="497" d="M156 0v1380l188 13v-1393h-188z" />
<glyph unicode="m" horiz-adv-x="1796" d="M156 0v1069h180l6 -620q90 264 152.5 398t127 189.5t156.5 55.5q115 0 172.5 -89.5t57.5 -269.5v-229q82 238 143 361.5t123.5 175t150.5 51.5q117 0 173.5 -88.5t56.5 -270.5v-733h-189v700q0 106 -14 151.5t-68 45.5q-43 0 -83.5 -59.5t-93 -188.5t-181.5 -465l1 3 q0 2 -71 -187h-137v700q0 106 -14 151.5t-68 45.5q-43 0 -83 -56.5t-90 -179t-167 -434.5l-86 -227h-155z" />
<glyph unicode="n" horiz-adv-x="1218" d="M156 0v1069h188v-643q106 276 177 413.5t140.5 195t169.5 57.5q123 0 184.5 -105.5t61.5 -279.5v-707h-188v682q0 98 -18.5 156.5t-75.5 58.5q-49 0 -93.5 -55.5t-102.5 -179t-189 -426.5l-103 -236h-151z" />
<glyph unicode="o" horiz-adv-x="1159" d="M109 451v167q0 156 39.5 258.5t147 159t304.5 56.5q195 0 293 -56.5t129 -155t31 -262.5v-167q0 -156 -40 -256.5t-148.5 -156.5t-305.5 -56q-184 0 -281.5 48t-133 147t-35.5 274zM297 424q0 -94 17.5 -152.5t77 -94.5t179.5 -36q170 0 230.5 67.5t60.5 211.5v233 q0 96 -19.5 154.5t-78.5 90.5t-174 32q-121 0 -185.5 -36t-86 -96.5t-21.5 -150.5v-223z" />
<glyph unicode="p" d="M156 -350v1419h188v-508q131 268 238.5 397t236.5 129q123 0 201 -90t78 -342v-149q0 -279 -92.5 -402.5t-296.5 -123.5q-195 0 -365 65v-395h-188zM344 207q158 -68 328 -68q121 0 179 90t58 285v143q0 150 -31.5 201t-91.5 51q-51 0 -105 -65.5t-117.5 -182 t-190.5 -372.5l-29 -58v-24z" />
<glyph unicode="q" d="M109 418v143q0 279 90 405t278 126q100 0 191.5 -33t201.5 -92l27 102h154v-1419h-189v848q-129 -262 -237.5 -388t-249.5 -126q-111 0 -188.5 98t-77.5 336zM297 414q0 -152 28.5 -202t84.5 -50q55 0 114.5 67.5t128 193.5t201.5 388q-125 68 -193.5 94.5t-144.5 26.5 q-219 0 -219 -375v-143z" />
<glyph unicode="r" horiz-adv-x="888" d="M156 0v1069h188v-598q88 315 193.5 468t234.5 153q54 -1 107 -13l-2 -180q-49 10 -89 10q-117 0 -228 -221t-255 -688h-149z" />
<glyph unicode="s" horiz-adv-x="897" d="M84 63l10 160q133 -47 208 -64.5t149 -17.5q76 0 126 43t50 109q0 59 -34 98t-118 70l-115 43q-229 86 -229 299q0 131 81 210t228 79q74 0 148 -14.5t186 -59.5l-8 -148q-172 63 -307 64q-59 0 -98 -37t-39 -92q0 -47 26.5 -81t93.5 -60l119 -48q131 -51 194.5 -130.5 t63.5 -196.5q0 -139 -87 -223t-245 -84q-88 0 -168.5 17t-234.5 64z" />
<glyph unicode="t" horiz-adv-x="784" d="M25 907v162h184v277h190v-277h293v-162h-293v-614q0 -154 99 -154q37 0 106.5 17.5t97.5 29.5l11 -145q-49 -20 -130 -39.5t-141 -19.5q-117 0 -175 69.5t-58 216.5v639h-184z" />
<glyph unicode="u" horiz-adv-x="1220" d="M141 362v707h189v-682q0 -98 18.5 -156.5t75.5 -58.5q49 0 93 55.5t102.5 179t189.5 427.5l102 235h152v-1069h-189v643q-106 -276 -176.5 -413.5t-140.5 -195t-170 -57.5q-123 0 -184.5 105.5t-61.5 279.5z" />
<glyph unicode="v" horiz-adv-x="1009" d="M57 1069h187l170 -917h65l217 460q80 178 80 344q0 51 -10 113h190q9 -49 9 -117q0 -100 -22.5 -203.5t-65.5 -193.5l-271 -555h-348z" />
<glyph unicode="w" horiz-adv-x="1605" d="M57 1069h191l153 -917h41l185 387q100 221 100 395q0 76 -14 135h176l153 -917h37l217 460q82 182 82 342q0 59 -12 115h180q15 -63 15 -143q0 -94 -21.5 -190.5t-62.5 -180.5l-271 -555h-303l-100 565q-41 -115 -94 -225l-172 -340h-285z" />
<glyph unicode="x" horiz-adv-x="1089" d="M45 0l277 514l-267 555h203l221 -485h133l224 485h200l-268 -557l276 -512h-204l-226 422h-139l-225 -422h-205z" />
<glyph unicode="y" horiz-adv-x="1015" d="M-66 -182q145 -25 263 -25q63 0 113 42t110 157l39 86h-201l-188 991h196l148 -840h110l158 355q104 231 104 387q0 43 -10 98h180q13 -57 13 -123q0 -201 -107 -420l-268 -553q-66 -133 -123 -206.5t-120.5 -104.5t-153.5 -31q-106 0 -263 33v154z" />
<glyph unicode="z" horiz-adv-x="946" d="M72 0v160l567 741v8h-553v162h780v-149l-565 -748v-12h588v-162h-817z" />
<glyph unicode="{" horiz-adv-x="794" d="M121 512v135q115 20 163 45t48 78q0 37 -21 84l-104 254q-35 82 -35 139q0 86 63.5 132t170.5 46h268v-163h-189q-123 0 -123 -84q0 -31 19 -78l104 -244q25 -61 25 -104q0 -68 -49 -108t-144 -64q92 -25 142.5 -64t50.5 -106q0 -45 -25 -107l-104 -242q-18 -43 -19 -77 q0 -41 31 -63.5t92 -22.5h189v-162h-266q-109 0 -172.5 47t-63.5 131q0 66 35 141l104 252q20 47 21 82q0 55 -49.5 80t-161.5 43z" />
<glyph unicode="|" horiz-adv-x="555" d="M190 -303v1718h175v-1718h-175z" />
<glyph unicode="}" horiz-adv-x="794" d="M121 -102h186q61 0 92 22.5t31 63.5q0 35 -18 77l-103 242q-25 61 -24 107q0 68 50 106.5t140 63.5q-92 25 -141 64.5t-49 107.5q0 43 24 104l103 244q20 51 20 78q0 84 -125 84h-186v163h266q106 0 170 -45t64 -131q0 -66 -35 -141l-105 -254q-20 -47 -20 -82 q0 -55 49 -79.5t164 -45.5v-135q-115 -18 -164 -43t-49 -80q0 -35 20 -82l105 -252q35 -76 35 -141q0 -84 -63.5 -131t-172.5 -47h-264v162z" />
<glyph unicode="~" horiz-adv-x="821" d="M109 354v140q61 36 101 49.5t81 13.5q37 0 68.5 -9t70.5 -28q39 -16 62.5 -24.5t50.5 -8.5q37 0 71.5 12.5t98.5 41.5v-138q-63 -37 -102.5 -51t-78.5 -14q-35 0 -62.5 8t-50 17.5t-28.5 11.5q-39 16 -62.5 24.5t-49.5 8.5q-35 0 -73 -12.5t-97 -41.5z" />
<glyph unicode="&#xa1;" horiz-adv-x="559" d="M190 -311l17 1018h145l15 -1018h-177zM190 829v240h177v-240h-177z" />
<glyph unicode="&#xa2;" horiz-adv-x="1028" d="M109 453v165q0 152 25.5 246t107.5 153.5t243 72.5v256h172v-261q80 -10 156 -33.5t121 -50.5l-2 -415h-154v303q-98 43 -198 43q-121 0 -182.5 -34t-82 -96.5t-20.5 -168.5v-195q0 -109 22.5 -171t83 -94t177.5 -32q86 0 176 11.5t159 29.5l9 -149q-45 -18 -122 -32.5 t-159 -18.5v-283h-172v285q-145 12 -224 66t-107.5 150.5t-28.5 252.5z" />
<glyph unicode="&#xa3;" horiz-adv-x="1107" d="M57 0v152q156 117 212.5 200.5t56.5 153.5q0 37 -17 164h-237v108h219q-39 207 -39 291q0 164 102.5 249t296.5 85q82 0 152.5 -13.5t159.5 -43.5l-11 -138q-96 23 -152.5 32t-125.5 9q-109 0 -172.5 -51t-63.5 -154q0 -49 37 -266h332v-108h-313q18 -125 18 -170 q0 -80 -58.5 -166t-193.5 -189h764v-145h-967z" />
<glyph unicode="&#xa4;" horiz-adv-x="1038" d="M109 297l124 129q-92 102 -92 254q0 162 92 256l-124 129l61 59l131 -133q86 57 217 58q133 0 219 -58l131 133l62 -59l-125 -129q49 -53 69.5 -114.5t20.5 -141.5q0 -156 -90 -254l125 -129l-62 -59l-131 133q-86 -57 -219 -58q-131 0 -217 58l-131 -133zM260 680 q0 -125 73 -193.5t185 -68.5q115 0 188.5 68.5t73.5 193.5t-70.5 194.5t-191.5 69.5q-119 0 -188.5 -68.5t-69.5 -195.5z" />
<glyph unicode="&#xa5;" horiz-adv-x="1175" d="M35 1380h215l321 -782h33l322 782h215l-379 -845h184v-109h-233l-29 -64v-12h262v-108h-262v-242h-195v242h-260v108h260v17l-26 59h-234v109h185z" />
<glyph unicode="&#xa6;" horiz-adv-x="489" d="M158 -303v694h174v-694h-174zM158 719v694h174v-694h-174z" />
<glyph unicode="&#xa7;" horiz-adv-x="1040" d="M84 47l8 135q139 -41 318 -55l2 41q0 111 -38 199t-116 213q-80 127 -120 220t-40 210q0 176 109.5 279.5t324.5 103.5q119 0 215.5 -18.5t206.5 -55.5l-10 -135q-163 53 -317 61q-2 -12 -2 -39q0 -111 37.5 -198.5t115.5 -212.5q80 -127 120 -220.5t40 -209.5 q0 -176 -109.5 -279.5t-324.5 -103.5q-131 0 -224.5 17t-195.5 48zM262 1004q0 -94 34 -168t105 -185q84 -125 129 -229.5t45 -249.5q0 -27 -2 -41q100 14 150.5 76.5t50.5 163.5q0 94 -34.5 169.5t-104.5 182.5q-84 127 -128 230.5t-46 248.5q0 27 2 41 q-100 -14 -150.5 -76.5t-50.5 -162.5z" />
<glyph unicode="&#xa8;" horiz-adv-x="452" d="M20 1176v206h142v-206h-142zM291 1176v206h141v-206h-141z" />
<glyph unicode="&#xa9;" horiz-adv-x="1685" d="M121 694q0 256 74.5 412t232.5 227.5t416 71.5t415.5 -71.5t231.5 -227.5t74 -412q0 -258 -74 -413.5t-231.5 -228t-415.5 -72.5t-416 72.5t-232.5 228t-74.5 413.5zM197 694q0 -229 66.5 -369.5t207.5 -205t373 -64.5q229 0 371.5 64.5t209 205t66.5 369.5 q0 227 -66.5 367.5t-209 205t-371.5 64.5q-231 0 -372.5 -64.5t-208 -203.5t-66.5 -369zM477 635v121q0 131 30 206.5t110.5 112.5t232.5 37q82 0 167 -15.5t130 -39.5l-2 -275h-113l2 189q-78 31 -176 30q-96 0 -148.5 -23.5t-72 -73.5t-19.5 -136v-147q0 -86 19.5 -136.5 t71 -74t147.5 -23.5q143 0 266 31l6 -103q-43 -16 -121.5 -28.5t-156.5 -12.5q-145 0 -225 34t-114 111t-34 216z" />
<glyph unicode="&#xaa;" horiz-adv-x="688" d="M109 1104v61q0 123 37.5 173.5t117.5 50.5q37 0 87 -12.5t93 -28.5l17 30h117l2 -483h-111l-31 166q-35 -80 -82 -127t-102 -47q-59 0 -102 47t-43 170zM264 1083q0 -82 37 -82t76 76t49 164v12q-61 20 -98 21q-35 0 -47.5 -21.5t-14.5 -74.5z" />
<glyph unicode="&#xab;" horiz-adv-x="1077" d="M109 473v82l321 346l90 -70l-248 -317l248 -317l-90 -68zM560 473v82l321 346l90 -70l-248 -317l248 -317l-90 -68z" />
<glyph unicode="&#xac;" horiz-adv-x="1011" d="M109 389v154h794v-434h-174v280h-620z" />
<glyph unicode="&#xad;" horiz-adv-x="727" d="M109 436v144h509v-144h-509z" />
<glyph unicode="&#xae;" horiz-adv-x="1058" d="M121 1004q0 215 95 307t312 92q220 0 315 -92t95 -307q0 -217 -95 -310.5t-315 -93.5q-217 0 -312 93t-95 311zM203 1004q0 -121 31.5 -191t102.5 -100.5t191 -30.5q123 0 194 30.5t102.5 100.5t31.5 191q0 178 -73.5 248.5t-254.5 70.5q-178 0 -251.5 -70.5 t-73.5 -248.5zM350 807v414h221q93 0 129.5 -27t36.5 -84v-12q0 -43 -25.5 -68.5t-88.5 -30.5v-4q111 -12 110 -92v-96h-92v88q0 57 -100 57h-101v-145h-90zM440 1022h111q47 0 70.5 12.5t23.5 46.5v11q0 33 -19.5 45t-78.5 12h-107v-127z" />
<glyph unicode="&#xaf;" horiz-adv-x="718" d="M84 1315h549v-121h-547z" />
<glyph unicode="&#xb0;" horiz-adv-x="839" d="M121 1126q0 104 28.5 163t92 84.5t178.5 25.5t179.5 -25.5t92 -84t27.5 -163.5q0 -104 -27.5 -163.5t-92 -85t-179.5 -25.5q-113 0 -177.5 25.5t-93 85t-28.5 163.5zM256 1126q0 -92 37 -128.5t127 -36.5t127 36.5t37 128.5t-37 128t-127 36t-127 -35.5t-37 -128.5z" />
<glyph unicode="&#xb1;" horiz-adv-x="727" d="M109 84v144h509v-144h-509zM109 489v138h184v188h137v-188h184v-138h-184v-186h-137v186h-184z" />
<glyph unicode="&#xb2;" horiz-adv-x="509" d="M31 958v123l223 225q29 29 42 51.5t13 51.5q0 63 -69 63q-92 0 -189 -18l-2 110q109 35 215 35q102 0 151.5 -40t49.5 -122q0 -57 -22.5 -97t-69.5 -87l-178 -178h284v-117h-448z" />
<glyph unicode="&#xb3;" horiz-adv-x="501" d="M33 983l4 110q98 -23 188 -22q51 0 75 22.5t24 69.5q0 55 -35 71.5t-84 16.5h-88v65l145 148v4h-219v117h381v-101l-139 -151h12q82 -6 133 -57.5t51 -139.5q0 -98 -57 -144t-170 -46q-66 0 -115 9t-106 28z" />
<glyph unicode="&#xb4;" horiz-adv-x="409" d="M80 1192l104 197h191l-135 -197h-160z" />
<glyph unicode="&#xb5;" horiz-adv-x="1226" d="M156 -307v1378h188v-784q143 -143 291 -144q98 0 172 68t74 205v655h190v-1071h-104l-39 121q-47 -72 -118 -106.5t-151 -34.5q-94 0 -168.5 34.5t-146.5 100.5v-422h-188z" />
<glyph unicode="&#xb6;" horiz-adv-x="1280" d="M57 1042q0 186 81 262t276 76h676v-1274q0 -225 -134.5 -318t-322.5 -93q-119 0 -220.5 21.5t-222.5 68.5l13 117q102 -35 188 -52.5t182 -19.5v875h-188q-178 0 -253 76.5t-75 260.5zM190 1042q0 -125 46.5 -177t158.5 -52h178v457h-176q-113 0 -160 -51.5t-47 -176.5z M721 -164q217 43 217 270v1166h-217v-1436z" />
<glyph unicode="&#xb7;" horiz-adv-x="380" d="M109 487v228h165v-228h-165z" />
<glyph unicode="&#xb8;" horiz-adv-x="548" d="M78 -207h90q102 0 145 27.5t43 109.5q0 31 -6 78l131 2q6 -47 6 -86q0 -131 -71.5 -180t-241.5 -45q-33 2 -96 2v92z" />
<glyph unicode="&#xb9;" horiz-adv-x="366" d="M20 1431v109l154 47h135v-629h-166v508z" />
<glyph unicode="&#xba;" horiz-adv-x="557" d="M43 1100v90q0 72 14.5 116t64.5 69.5t154 25.5t155.5 -25.5t67 -68.5t15.5 -117v-90q0 -74 -15.5 -117t-66.5 -68.5t-156 -25.5q-96 0 -146 20.5t-68.5 64.5t-18.5 126zM188 1096q0 -45 15.5 -72t75.5 -27q57 0 73.5 26t16.5 71v100q0 45 -15.5 70.5t-74.5 25.5 q-57 0 -74 -26.5t-17 -71.5v-96z" />
<glyph unicode="&#xbb;" horiz-adv-x="1083" d="M109 197l247 317l-247 317l88 70l323 -346v-82l-323 -344zM563 197l248 317l-248 317l88 70l324 -346v-82l-324 -344z" />
<glyph unicode="&#xbc;" horiz-adv-x="1349" d="M20 1223v109l154 47h135v-629h-166v508zM60 0l799 1380h186l-793 -1380h-192zM772 111v133l270 385h205v-398h80v-120h-80v-111h-158v111h-317zM915 231h174v244h-20l-154 -229v-15z" />
<glyph unicode="&#xbd;" horiz-adv-x="1255" d="M20 1223v109l154 47h135v-629h-166v508zM60 0l799 1380h186l-793 -1380h-192zM776 0v123l223 225q29 29 42 51.5t13 51.5q0 63 -69 63q-92 0 -189 -18l-2 110q109 35 215 35q102 0 151.5 -40t49.5 -122q0 -57 -22.5 -97t-69.5 -87l-178 -178h284v-117h-448z" />
<glyph unicode="&#xbe;" horiz-adv-x="1484" d="M33 775l4 110q98 -23 188 -22q51 0 75 22.5t24 69.5q0 55 -35 71.5t-84 16.5h-88v65l145 148v4h-219v117h381v-101l-139 -151h12q82 -6 133 -57.5t51 -139.5q0 -98 -57 -144t-170 -46q-66 0 -115 9t-106 28zM195 0l799 1380h186l-793 -1380h-192zM908 111v133l270 385 h205v-398h80v-120h-80v-111h-158v111h-317zM1051 231h174v244h-20l-154 -229v-15z" />
<glyph unicode="&#xbf;" horiz-adv-x="1024" d="M121 8q0 186 113.5 299t252.5 189l7 206h149l6 -268q-143 -63 -242.5 -155.5t-99.5 -241.5q0 -109 67.5 -161t178.5 -52q96 0 164.5 13t171.5 46l14 -139q-119 -45 -197.5 -60.5t-175.5 -15.5q-410 0 -409 340zM479 829v240h176v-240h-176z" />
<glyph unicode="&#xc0;" horiz-adv-x="1282" d="M57 0l367 1380h434l367 -1380h-199l-84 315h-602l-84 -315h-199zM385 487h512l-195 725h-124zM476 1699h193l102 -198h-157z" />
<glyph unicode="&#xc1;" horiz-adv-x="1282" d="M57 0l367 1380h434l367 -1380h-199l-84 315h-602l-84 -315h-199zM385 487h512l-195 725h-124zM538 1503l104 197h191l-135 -197h-160z" />
<glyph unicode="&#xc2;" horiz-adv-x="1282" d="M57 0l367 1380h434l367 -1380h-199l-84 315h-602l-84 -315h-199zM384 1501l142 207h227l141 -207h-141l-98 135h-31l-100 -135h-140zM385 487h512l-195 725h-124z" />
<glyph unicode="&#xc3;" horiz-adv-x="1282" d="M57 0l367 1380h434l367 -1380h-199l-84 315h-602l-84 -315h-199zM385 487h512l-195 725h-124zM393 1534v109q52 28 83.5 38.5t64.5 10.5q49 0 115 -29q57 -25 90 -25q29 0 60.5 10.5t78.5 30.5v-106q-49 -29 -82 -40t-63 -11q-51 0 -117 28q-4 2 -33 13.5t-57 11.5 q-53 0 -140 -41z" />
<glyph unicode="&#xc4;" horiz-adv-x="1282" d="M57 0l367 1380h434l367 -1380h-199l-84 315h-602l-84 -315h-199zM385 487h512l-195 725h-124zM432 1503v206h142v-206h-142zM703 1503v206h141v-206h-141z" />
<glyph unicode="&#xc5;" horiz-adv-x="1282" d="M57 0l367 1380h434l367 -1380h-199l-84 315h-602l-84 -315h-199zM385 487h512l-195 725h-124zM461 1610q0 67 37 91.5t145 24.5q106 0 142 -24.5t36 -91.5q0 -68 -35.5 -92.5t-142.5 -24.5q-109 0 -145.5 24.5t-36.5 92.5zM574 1610q0 -35 14 -47.5t55 -12.5t55.5 12.5 t14.5 47.5t-14.5 46t-55.5 11t-55 -11.5t-14 -45.5z" />
<glyph unicode="&#xc6;" horiz-adv-x="1853" d="M57 0l600 1380h1100v-172h-641v-479h598v-168h-598v-389h651v-172h-845v362h-498l-162 -362h-205zM489 514h433v709h-117z" />
<glyph unicode="&#xc7;" horiz-adv-x="1257" d="M121 559v270q0 184 34.5 303t155.5 194t365 75q111 0 243 -22.5t216 -61.5v-649h-179v516q-106 45 -278 45q-170 0 -248 -51.5t-95.5 -128t-17.5 -213.5v-279q0 -152 18.5 -229.5t98.5 -126.5t258 -49q158 0 430 41l8 -158q-221 -45 -362 -55q2 -20 2 -60 q0 -129 -70.5 -177t-240.5 -44q-33 2 -97 2v92h91q102 0 146 27.5t44 107.5q0 12 -4 49q-231 8 -344 85t-143.5 194t-30.5 303z" />
<glyph unicode="&#xc8;" horiz-adv-x="1124" d="M190 0v1380h838v-172h-641v-479h598v-168h-598v-389h651v-172h-848zM437 1699h193l102 -198h-157z" />
<glyph unicode="&#xc9;" horiz-adv-x="1124" d="M190 0v1380h838v-172h-641v-479h598v-168h-598v-389h651v-172h-848zM499 1503l104 197h191l-135 -197h-160z" />
<glyph unicode="&#xca;" horiz-adv-x="1124" d="M190 0v1380h838v-172h-641v-479h598v-168h-598v-389h651v-172h-848zM345 1501l142 207h227l141 -207h-141l-98 135h-31l-100 -135h-140z" />
<glyph unicode="&#xcb;" horiz-adv-x="1124" d="M190 0v1380h838v-172h-641v-479h598v-168h-598v-389h651v-172h-848zM395 1503v206h142v-206h-142zM666 1503v206h141v-206h-141z" />
<glyph unicode="&#xcc;" horiz-adv-x="577" d="M124 1699h193l102 -198h-157zM190 0v1380h195v-1380h-195z" />
<glyph unicode="&#xcd;" horiz-adv-x="577" d="M186 1503l104 197h191l-135 -197h-160zM190 0v1380h195v-1380h-195z" />
<glyph unicode="&#xce;" horiz-adv-x="577" d="M32 1501l142 207h227l141 -207h-141l-98 135h-31l-100 -135h-140zM190 0v1380h195v-1380h-195z" />
<glyph unicode="&#xcf;" horiz-adv-x="577" d="M79 1503v206h142v-206h-142zM190 0v1380h195v-1380h-195zM350 1503v206h141v-206h-141z" />
<glyph unicode="&#xd0;" horiz-adv-x="1376" d="M-12 625v143h202v612h428q232 0 363 -35.5t202.5 -154.5t71.5 -361v-270q0 -221 -54 -340t-189 -169t-391 -50h-431v625h-202zM385 172h260q150 0 239 32t133 114.5t44 236.5v276q0 133 -33 213t-123 122t-260 42h-260v-440h203v-143h-203v-453z" />
<glyph unicode="&#xd1;" horiz-adv-x="1464" d="M190 0v1380h410l418 -1208h59v1208h195v-1380h-400l-419 1208h-68v-1208h-195zM485 1534v109q52 28 83.5 38.5t64.5 10.5q49 0 115 -29q57 -25 90 -25q29 0 60.5 10.5t78.5 30.5v-106q-49 -29 -82 -40t-63 -11q-51 0 -117 28q-4 2 -33 13.5t-57 11.5q-53 0 -140 -41z" />
<glyph unicode="&#xd2;" horiz-adv-x="1384" d="M121 567v248q0 195 33.5 314.5t157.5 195.5t380 76q254 0 379 -77t159 -196.5t34 -312.5v-248q0 -213 -43 -338t-166 -188.5t-363 -63.5t-363.5 63.5t-165.5 187.5t-42 339zM317 559q0 -156 25 -239.5t104.5 -125.5t245.5 -42q164 0 245 42t105.5 125.5t24.5 239.5v266 q0 141 -20.5 223t-101.5 131.5t-253 49.5t-253 -49.5t-101.5 -130t-20.5 -224.5v-266zM528 1699h193l102 -198h-157z" />
<glyph unicode="&#xd3;" horiz-adv-x="1384" d="M121 567v248q0 195 33.5 314.5t157.5 195.5t380 76q254 0 379 -77t159 -196.5t34 -312.5v-248q0 -213 -43 -338t-166 -188.5t-363 -63.5t-363.5 63.5t-165.5 187.5t-42 339zM317 559q0 -156 25 -239.5t104.5 -125.5t245.5 -42q164 0 245 42t105.5 125.5t24.5 239.5v266 q0 141 -20.5 223t-101.5 131.5t-253 49.5t-253 -49.5t-101.5 -130t-20.5 -224.5v-266zM590 1503l104 197h191l-135 -197h-160z" />
<glyph unicode="&#xd4;" horiz-adv-x="1384" d="M121 567v248q0 195 33.5 314.5t157.5 195.5t380 76q254 0 379 -77t159 -196.5t34 -312.5v-248q0 -213 -43 -338t-166 -188.5t-363 -63.5t-363.5 63.5t-165.5 187.5t-42 339zM317 559q0 -156 25 -239.5t104.5 -125.5t245.5 -42q164 0 245 42t105.5 125.5t24.5 239.5v266 q0 141 -20.5 223t-101.5 131.5t-253 49.5t-253 -49.5t-101.5 -130t-20.5 -224.5v-266zM435 1501l142 207h227l141 -207h-141l-98 135h-31l-100 -135h-140z" />
<glyph unicode="&#xd5;" horiz-adv-x="1384" d="M121 567v248q0 195 33.5 314.5t157.5 195.5t380 76q254 0 379 -77t159 -196.5t34 -312.5v-248q0 -213 -43 -338t-166 -188.5t-363 -63.5t-363.5 63.5t-165.5 187.5t-42 339zM317 559q0 -156 25 -239.5t104.5 -125.5t245.5 -42q164 0 245 42t105.5 125.5t24.5 239.5v266 q0 141 -20.5 223t-101.5 131.5t-253 49.5t-253 -49.5t-101.5 -130t-20.5 -224.5v-266zM444 1534v109q52 28 83.5 38.5t64.5 10.5q49 0 115 -29q57 -25 90 -25q29 0 60.5 10.5t78.5 30.5v-106q-49 -29 -82 -40t-63 -11q-51 0 -117 28q-4 2 -33 13.5t-57 11.5q-53 0 -140 -41z " />
<glyph unicode="&#xd6;" horiz-adv-x="1384" d="M121 567v248q0 195 33.5 314.5t157.5 195.5t380 76q254 0 379 -77t159 -196.5t34 -312.5v-248q0 -213 -43 -338t-166 -188.5t-363 -63.5t-363.5 63.5t-165.5 187.5t-42 339zM317 559q0 -156 25 -239.5t104.5 -125.5t245.5 -42q164 0 245 42t105.5 125.5t24.5 239.5v266 q0 141 -20.5 223t-101.5 131.5t-253 49.5t-253 -49.5t-101.5 -130t-20.5 -224.5v-266zM485 1503v206h142v-206h-142zM756 1503v206h141v-206h-141z" />
<glyph unicode="&#xd7;" horiz-adv-x="675" d="M109 356l131 131l-131 131l96 97l131 -131l133 133l98 -96l-133 -134l129 -129l-98 -98l-129 129l-129 -129z" />
<glyph unicode="&#xd8;" horiz-adv-x="1384" d="M121 567v248q0 195 33.5 314.5t157.5 195.5t380 76q82 0 164 -10l47 120h199l-68 -168q101 -45 151 -123.5t64.5 -173t14.5 -231.5v-248q0 -213 -43 -338t-166 -188.5t-363 -63.5q-106 0 -190 13l-47 -117h-201l68 172q-117 61 -159 185t-42 337zM317 559 q0 -129 15.5 -206t62.5 -124l393 996q-57 4 -96 4q-172 0 -253 -49.5t-101.5 -130t-20.5 -224.5v-266zM567 160q49 -8 125 -8q164 0 245 42t105.5 125.5t24.5 239.5v266q0 137 -18.5 215t-83.5 125z" />
<glyph unicode="&#xd9;" horiz-adv-x="1380" d="M166 481v899h192v-903q0 -115 18.5 -180.5t90.5 -105t223 -39.5q150 0 221.5 39.5t90 106.5t18.5 181v901h194v-899q0 -174 -34.5 -278.5t-148 -165t-341.5 -60.5q-227 0 -340.5 60.5t-148.5 165t-35 278.5zM525 1699h193l102 -198h-157z" />
<glyph unicode="&#xda;" horiz-adv-x="1380" d="M166 481v899h192v-903q0 -115 18.5 -180.5t90.5 -105t223 -39.5q150 0 221.5 39.5t90 106.5t18.5 181v901h194v-899q0 -174 -34.5 -278.5t-148 -165t-341.5 -60.5q-227 0 -340.5 60.5t-148.5 165t-35 278.5zM588 1503l104 197h191l-135 -197h-160z" />
<glyph unicode="&#xdb;" horiz-adv-x="1380" d="M166 481v899h192v-903q0 -115 18.5 -180.5t90.5 -105t223 -39.5q150 0 221.5 39.5t90 106.5t18.5 181v901h194v-899q0 -174 -34.5 -278.5t-148 -165t-341.5 -60.5q-227 0 -340.5 60.5t-148.5 165t-35 278.5zM433 1501l142 207h227l141 -207h-141l-98 135h-31l-100 -135 h-140z" />
<glyph unicode="&#xdc;" horiz-adv-x="1380" d="M166 481v899h192v-903q0 -115 18.5 -180.5t90.5 -105t223 -39.5q150 0 221.5 39.5t90 106.5t18.5 181v901h194v-899q0 -174 -34.5 -278.5t-148 -165t-341.5 -60.5q-227 0 -340.5 60.5t-148.5 165t-35 278.5zM483 1503v206h142v-206h-142zM754 1503v206h141v-206h-141z " />
<glyph unicode="&#xdd;" horiz-adv-x="1175" d="M35 1380h215l321 -782h33l322 782h215l-457 -1018v-362h-195v367zM485 1503l104 197h191l-135 -197h-160z" />
<glyph unicode="&#xde;" horiz-adv-x="1261" d="M190 0v1380h195v-241h391q215 0 308.5 -90.5t93.5 -292.5v-131q0 -203 -90.5 -291t-294.5 -88h-408v-246h-195zM385 418h346q139 0 199.5 49t60.5 170v94q0 133 -59.5 184.5t-200.5 51.5h-346v-549z" />
<glyph unicode="&#xdf;" horiz-adv-x="1310" d="M156 0v1075q0 166 66.5 247t221.5 81h361q160 0 236.5 -61.5t76.5 -206.5q0 -98 -43 -159t-139 -81l-166 -35q-53 -12 -78.5 -33.5t-25.5 -68.5q0 -39 25.5 -61.5t80.5 -37.5l223 -59q121 -31 178.5 -109.5t57.5 -205.5q0 -160 -73 -231.5t-240 -71.5q-272 -1 -467 22 l6 156q221 -27 454 -27q84 0 121 39t37 127q0 70 -34 108.5t-113 61.5l-222 61q-100 27 -147 82.5t-47 141.5q0 104 47 158.5t162 76.5l133 29q102 20 102 112q0 57 -31.5 85t-101.5 28h-334q-74 0 -107.5 -47t-33.5 -141v-1055h-186z" />
<glyph unicode="&#xe0;" d="M109 418v145q0 276 91 402.5t277 126.5q96 0 189.5 -33t207.5 -94l23 104h154v-1069h-179l-10 500q-127 -260 -235.5 -388t-243.5 -128q-117 0 -195.5 97t-78.5 337zM297 401q0 -141 32.5 -190t88.5 -49q53 0 110.5 68.5t125 192.5t200.5 390q-119 63 -192.5 91 t-147.5 28q-217 0 -217 -375v-156zM446 1390h193l102 -198h-157z" />
<glyph unicode="&#xe1;" d="M109 418v145q0 276 91 402.5t277 126.5q96 0 189.5 -33t207.5 -94l23 104h154v-1069h-179l-10 500q-127 -260 -235.5 -388t-243.5 -128q-117 0 -195.5 97t-78.5 337zM297 401q0 -141 32.5 -190t88.5 -49q53 0 110.5 68.5t125 192.5t200.5 390q-119 63 -192.5 91 t-147.5 28q-217 0 -217 -375v-156zM497 1194l104 197h191l-135 -197h-160z" />
<glyph unicode="&#xe2;" d="M109 418v145q0 276 91 402.5t277 126.5q96 0 189.5 -33t207.5 -94l23 104h154v-1069h-179l-10 500q-127 -260 -235.5 -388t-243.5 -128q-117 0 -195.5 97t-78.5 337zM297 401q0 -141 32.5 -190t88.5 -49q53 0 110.5 68.5t125 192.5t200.5 390q-119 63 -192.5 91 t-147.5 28q-217 0 -217 -375v-156zM368 1192l142 207h227l141 -207h-141l-98 135h-31l-100 -135h-140z" />
<glyph unicode="&#xe3;" d="M109 418v145q0 276 91 402.5t277 126.5q96 0 189.5 -33t207.5 -94l23 104h154v-1069h-179l-10 500q-127 -260 -235.5 -388t-243.5 -128q-117 0 -195.5 97t-78.5 337zM297 401q0 -141 32.5 -190t88.5 -49q53 0 110.5 68.5t125 192.5t200.5 390q-119 63 -192.5 91 t-147.5 28q-217 0 -217 -375v-156zM377 1225v109q52 28 83.5 38.5t64.5 10.5q49 0 115 -29q57 -25 90 -25q29 0 60.5 10.5t78.5 30.5v-106q-49 -29 -82 -40t-63 -11q-51 0 -117 28q-4 2 -33 13.5t-57 11.5q-53 0 -140 -41z" />
<glyph unicode="&#xe4;" d="M109 418v145q0 276 91 402.5t277 126.5q96 0 189.5 -33t207.5 -94l23 104h154v-1069h-179l-10 500q-127 -260 -235.5 -388t-243.5 -128q-117 0 -195.5 97t-78.5 337zM297 401q0 -141 32.5 -190t88.5 -49q53 0 110.5 68.5t125 192.5t200.5 390q-119 63 -192.5 91 t-147.5 28q-217 0 -217 -375v-156zM415 1194v206h142v-206h-142zM686 1194v206h141v-206h-141z" />
<glyph unicode="&#xe5;" d="M109 418v145q0 276 91 402.5t277 126.5q96 0 189.5 -33t207.5 -94l23 104h154v-1069h-179l-10 500q-127 -260 -235.5 -388t-243.5 -128q-117 0 -195.5 97t-78.5 337zM297 401q0 -141 32.5 -190t88.5 -49q53 0 110.5 68.5t125 192.5t200.5 390q-119 63 -192.5 91 t-147.5 28q-217 0 -217 -375v-156zM442 1330q0 67 37 91.5t145 24.5q106 0 142 -24.5t36 -91.5q0 -68 -35.5 -92.5t-142.5 -24.5q-109 0 -145.5 24.5t-36.5 92.5zM555 1330q0 -35 14 -47.5t55 -12.5t55.5 12.5t14.5 47.5t-14.5 46t-55.5 11t-55 -11.5t-14 -45.5z" />
<glyph unicode="&#xe6;" horiz-adv-x="1681" d="M109 301q0 145 73.5 220t235.5 95l360 41q0 90 -14 146.5t-58 88.5t-133 32q-80 0 -168 -27t-212 -84l-11 160q250 119 418 119q211 0 295 -109q113 109 336 109q203 0 285.5 -78t82.5 -197q0 -98 -58 -166.5t-183 -130t-387 -164.5q8 -102 54 -158.5t146 -56.5 q137 0 424 142l15 -152q-131 -72 -236.5 -111.5t-224.5 -39.5q-258 0 -334 210q-102 -94 -211.5 -152t-214.5 -58q-281 0 -280 321zM289 313q0 -82 38 -127t109 -45q90 0 173 51.5t175 139.5q-6 53 -6 112v86l-278 -34q-121 -16 -166 -58.5t-45 -124.5zM967 520 q221 88 301 125t113.5 72t33.5 90q0 57 -42 92t-132 35q-149 0 -211.5 -68.5t-62.5 -218.5v-127z" />
<glyph unicode="&#xe7;" horiz-adv-x="1034" d="M109 442v179q0 160 33.5 260t125.5 155.5t264 55.5q98 0 212 -27t190 -64l-2 -376l-156 -39v301q-109 45 -203 45q-160 0 -218 -66.5t-58 -216.5v-225q0 -131 39 -207t162 -76q86 0 190.5 37t237.5 105l14 -150q-191 -108 -334 -139q4 -49 4 -68q0 -133 -71.5 -182 t-241.5 -45q-33 2 -96 2v92h90q102 0 146 28.5t44 108.5q0 12 -4 50q-195 2 -281.5 115.5t-86.5 346.5z" />
<glyph unicode="&#xe8;" horiz-adv-x="1011" d="M109 444v179q0 231 106.5 350t345.5 119q203 0 286 -78t83 -197q0 -98 -58.5 -166.5t-183.5 -130t-387 -164.5q8 -102 54 -158.5t147 -56.5q137 0 424 142l12 -152q-127 -70 -233.5 -110.5t-225.5 -40.5q-203 0 -286.5 120.5t-83.5 343.5zM297 520q221 88 301 125 t113.5 72t33.5 90q0 57 -41.5 92t-132.5 35q-149 0 -211.5 -68.5t-62.5 -218.5v-127zM380 1390h193l102 -198h-157z" />
<glyph unicode="&#xe9;" horiz-adv-x="1011" d="M109 444v179q0 231 106.5 350t345.5 119q203 0 286 -78t83 -197q0 -98 -58.5 -166.5t-183.5 -130t-387 -164.5q8 -102 54 -158.5t147 -56.5q137 0 424 142l12 -152q-127 -70 -233.5 -110.5t-225.5 -40.5q-203 0 -286.5 120.5t-83.5 343.5zM297 520q221 88 301 125 t113.5 72t33.5 90q0 57 -41.5 92t-132.5 35q-149 0 -211.5 -68.5t-62.5 -218.5v-127zM430 1194l104 197h191l-135 -197h-160z" />
<glyph unicode="&#xea;" horiz-adv-x="1011" d="M109 444v179q0 231 106.5 350t345.5 119q203 0 286 -78t83 -197q0 -98 -58.5 -166.5t-183.5 -130t-387 -164.5q8 -102 54 -158.5t147 -56.5q137 0 424 142l12 -152q-127 -70 -233.5 -110.5t-225.5 -40.5q-203 0 -286.5 120.5t-83.5 343.5zM297 520q221 88 301 125 t113.5 72t33.5 90q0 57 -41.5 92t-132.5 35q-149 0 -211.5 -68.5t-62.5 -218.5v-127zM300 1192l142 207h227l141 -207h-141l-98 135h-31l-100 -135h-140z" />
<glyph unicode="&#xeb;" horiz-adv-x="1011" d="M109 444v179q0 231 106.5 350t345.5 119q203 0 286 -78t83 -197q0 -98 -58.5 -166.5t-183.5 -130t-387 -164.5q8 -102 54 -158.5t147 -56.5q137 0 424 142l12 -152q-127 -70 -233.5 -110.5t-225.5 -40.5q-203 0 -286.5 120.5t-83.5 343.5zM297 520q221 88 301 125 t113.5 72t33.5 90q0 57 -41.5 92t-132.5 35q-149 0 -211.5 -68.5t-62.5 -218.5v-127zM348 1194v206h142v-206h-142zM619 1194v206h141v-206h-141z" />
<glyph unicode="&#xec;" horiz-adv-x="497" d="M71 1390h193l102 -198h-157zM156 0v1071h188v-1071h-188z" />
<glyph unicode="&#xed;" horiz-adv-x="497" d="M123 1194l104 197h191l-135 -197h-160zM156 0v1071h188v-1071h-188z" />
<glyph unicode="&#xee;" horiz-adv-x="497" d="M-7 1192l142 207h227l141 -207h-141l-98 135h-31l-100 -135h-140zM156 0v1071h188v-1071h-188z" />
<glyph unicode="&#xef;" horiz-adv-x="497" d="M40 1194v206h142v-206h-142zM156 0v1071h188v-1071h-188zM311 1194v206h141v-206h-141z" />
<glyph unicode="&#xf0;" horiz-adv-x="1234" d="M109 449v108q0 147 25.5 243.5t116.5 158t273 61.5q86 0 163 -16.5t169 -57.5q-27 174 -102 268l-219 -51v64l170 41q-76 63 -201 100l170 37q117 -35 194 -98l211 49l2 -64l-159 -39q86 -100 113.5 -252.5t27.5 -400.5v-147q0 -162 -37 -262.5t-142.5 -154.5t-303.5 -54 q-197 0 -298.5 52t-137 150.5t-35.5 264.5zM295 436q0 -100 20.5 -162.5t83 -96.5t183.5 -34q125 0 188.5 34t82.5 93.5t19 161.5v180q0 137 -4 201q-84 41 -149.5 56.5t-138.5 15.5q-119 0 -181.5 -38t-83 -104.5t-20.5 -171.5v-135z" />
<glyph unicode="&#xf1;" horiz-adv-x="1218" d="M156 0v1069h188v-643q106 276 177 413.5t140.5 195t169.5 57.5q123 0 184.5 -105.5t61.5 -279.5v-707h-188v682q0 98 -18.5 156.5t-75.5 58.5q-49 0 -93.5 -55.5t-102.5 -179t-189 -426.5l-103 -236h-151zM362 1225v109q52 28 83.5 38.5t64.5 10.5q49 0 115 -29 q57 -25 90 -25q29 0 60.5 10.5t78.5 30.5v-106q-49 -29 -82 -40t-63 -11q-51 0 -117 28q-4 2 -33 13.5t-57 11.5q-53 0 -140 -41z" />
<glyph unicode="&#xf2;" horiz-adv-x="1159" d="M109 451v167q0 156 39.5 258.5t147 159t304.5 56.5q195 0 293 -56.5t129 -155t31 -262.5v-167q0 -156 -40 -256.5t-148.5 -156.5t-305.5 -56q-184 0 -281.5 48t-133 147t-35.5 274zM297 424q0 -94 17.5 -152.5t77 -94.5t179.5 -36q170 0 230.5 67.5t60.5 211.5v233 q0 96 -19.5 154.5t-78.5 90.5t-174 32q-121 0 -185.5 -36t-86 -96.5t-21.5 -150.5v-223zM398 1390h193l102 -198h-157z" />
<glyph unicode="&#xf3;" horiz-adv-x="1159" d="M109 451v167q0 156 39.5 258.5t147 159t304.5 56.5q195 0 293 -56.5t129 -155t31 -262.5v-167q0 -156 -40 -256.5t-148.5 -156.5t-305.5 -56q-184 0 -281.5 48t-133 147t-35.5 274zM297 424q0 -94 17.5 -152.5t77 -94.5t179.5 -36q170 0 230.5 67.5t60.5 211.5v233 q0 96 -19.5 154.5t-78.5 90.5t-174 32q-121 0 -185.5 -36t-86 -96.5t-21.5 -150.5v-223zM448 1194l104 197h191l-135 -197h-160z" />
<glyph unicode="&#xf4;" horiz-adv-x="1159" d="M109 451v167q0 156 39.5 258.5t147 159t304.5 56.5q195 0 293 -56.5t129 -155t31 -262.5v-167q0 -156 -40 -256.5t-148.5 -156.5t-305.5 -56q-184 0 -281.5 48t-133 147t-35.5 274zM297 424q0 -94 17.5 -152.5t77 -94.5t179.5 -36q170 0 230.5 67.5t60.5 211.5v233 q0 96 -19.5 154.5t-78.5 90.5t-174 32q-121 0 -185.5 -36t-86 -96.5t-21.5 -150.5v-223zM321 1192l142 207h227l141 -207h-141l-98 135h-31l-100 -135h-140z" />
<glyph unicode="&#xf5;" horiz-adv-x="1159" d="M109 451v167q0 156 39.5 258.5t147 159t304.5 56.5q195 0 293 -56.5t129 -155t31 -262.5v-167q0 -156 -40 -256.5t-148.5 -156.5t-305.5 -56q-184 0 -281.5 48t-133 147t-35.5 274zM297 424q0 -94 17.5 -152.5t77 -94.5t179.5 -36q170 0 230.5 67.5t60.5 211.5v233 q0 96 -19.5 154.5t-78.5 90.5t-174 32q-121 0 -185.5 -36t-86 -96.5t-21.5 -150.5v-223zM328 1225v109q52 28 83.5 38.5t64.5 10.5q49 0 115 -29q57 -25 90 -25q29 0 60.5 10.5t78.5 30.5v-106q-49 -29 -82 -40t-63 -11q-51 0 -117 28q-4 2 -33 13.5t-57 11.5 q-53 0 -140 -41z" />
<glyph unicode="&#xf6;" horiz-adv-x="1159" d="M109 451v167q0 156 39.5 258.5t147 159t304.5 56.5q195 0 293 -56.5t129 -155t31 -262.5v-167q0 -156 -40 -256.5t-148.5 -156.5t-305.5 -56q-184 0 -281.5 48t-133 147t-35.5 274zM297 424q0 -94 17.5 -152.5t77 -94.5t179.5 -36q170 0 230.5 67.5t60.5 211.5v233 q0 96 -19.5 154.5t-78.5 90.5t-174 32q-121 0 -185.5 -36t-86 -96.5t-21.5 -150.5v-223zM368 1194v206h142v-206h-142zM639 1194v206h141v-206h-141z" />
<glyph unicode="&#xf7;" horiz-adv-x="727" d="M109 459v123h509v-123h-509zM293 186v174h164v-174h-164zM293 668v176h164v-176h-164z" />
<glyph unicode="&#xf8;" horiz-adv-x="1159" d="M109 451v167q0 156 39.5 258.5t147 159t304.5 56.5q41 0 62 -2l28 81h209l-43 -118q119 -49 158 -151.5t39 -283.5v-167q0 -156 -40 -256.5t-148.5 -156.5t-305.5 -56q-57 0 -82 2l-31 -84h-210l45 127q-98 47 -135 146t-37 278zM297 424q0 -76 10 -126t41 -85l256 717 h-14q-121 0 -185.5 -36t-86 -96.5t-21.5 -150.5v-223zM532 143q12 -2 39 -2q170 0 230.5 67.5t60.5 211.5v233q0 84 -14 138.5t-53 87.5z" />
<glyph unicode="&#xf9;" horiz-adv-x="1220" d="M141 362v707h189v-682q0 -98 18.5 -156.5t75.5 -58.5q49 0 93 55.5t102.5 179t189.5 427.5l102 235h152v-1069h-189v643q-106 -276 -176.5 -413.5t-140.5 -195t-170 -57.5q-123 0 -184.5 105.5t-61.5 279.5zM435 1388h193l102 -198h-157z" />
<glyph unicode="&#xfa;" horiz-adv-x="1220" d="M141 362v707h189v-682q0 -98 18.5 -156.5t75.5 -58.5q49 0 93 55.5t102.5 179t189.5 427.5l102 235h152v-1069h-189v643q-106 -276 -176.5 -413.5t-140.5 -195t-170 -57.5q-123 0 -184.5 105.5t-61.5 279.5zM485 1192l104 197h191l-135 -197h-160z" />
<glyph unicode="&#xfb;" horiz-adv-x="1220" d="M141 362v707h189v-682q0 -98 18.5 -156.5t75.5 -58.5q49 0 93 55.5t102.5 179t189.5 427.5l102 235h152v-1069h-189v643q-106 -276 -176.5 -413.5t-140.5 -195t-170 -57.5q-123 0 -184.5 105.5t-61.5 279.5zM355 1190l142 207h227l141 -207h-141l-98 135h-31l-100 -135 h-140z" />
<glyph unicode="&#xfc;" horiz-adv-x="1220" d="M141 362v707h189v-682q0 -98 18.5 -156.5t75.5 -58.5q49 0 93 55.5t102.5 179t189.5 427.5l102 235h152v-1069h-189v643q-106 -276 -176.5 -413.5t-140.5 -195t-170 -57.5q-123 0 -184.5 105.5t-61.5 279.5zM403 1192v206h142v-206h-142zM674 1192v206h141v-206h-141z " />
<glyph unicode="&#xfd;" horiz-adv-x="1015" d="M-66 -182q145 -25 263 -25q63 0 113 42t110 157l39 86h-201l-188 991h196l148 -840h110l158 355q104 231 104 387q0 43 -10 98h180q13 -57 13 -123q0 -201 -107 -420l-268 -553q-66 -133 -123 -206.5t-120.5 -104.5t-153.5 -31q-106 0 -263 33v154zM399 1192l104 197h191 l-135 -197h-160z" />
<glyph unicode="&#xfe;" d="M156 -350v1730l188 13v-832q131 268 238.5 397t236.5 129q123 0 201 -90t78 -342v-149q0 -279 -92.5 -402.5t-296.5 -123.5q-195 0 -365 65v-395h-188zM344 207q158 -68 328 -68q121 0 179 90t58 285v143q0 150 -31.5 201t-91.5 51q-51 0 -105 -65.5t-117.5 -182 t-190.5 -372.5l-29 -58v-24z" />
<glyph unicode="&#xff;" horiz-adv-x="1015" d="M-66 -182q145 -25 263 -25q63 0 113 42t110 157l39 86h-201l-188 991h196l148 -840h110l158 355q104 231 104 387q0 43 -10 98h180q13 -57 13 -123q0 -201 -107 -420l-268 -553q-66 -133 -123 -206.5t-120.5 -104.5t-153.5 -31q-106 0 -263 33v154zM319 1192v206h142 v-206h-142zM590 1192v206h141v-206h-141z" />
<glyph unicode="&#x152;" horiz-adv-x="2000" d="M121 567v248q0 195 33.5 314.5t157.5 195.5t380 76q244 0 375 -74v53h838v-172h-641v-479h598v-168h-598v-389h651v-172h-848v47q-127 -70 -375 -70q-240 0 -363.5 63.5t-165.5 187.5t-42 339zM317 559q0 -156 25 -239.5t104.5 -125.5t245.5 -42q164 0 245 42 t105.5 125.5t24.5 239.5v266q0 141 -20.5 223t-101.5 131.5t-253 49.5t-253 -49.5t-101.5 -130t-20.5 -224.5v-266z" />
<glyph unicode="&#x153;" horiz-adv-x="1789" d="M109 451v167q0 156 39.5 258.5t147 159t304.5 56.5q150 0 242 -34t139 -100q111 133 358 134q203 0 286 -78t83 -197q0 -98 -58.5 -166.5t-183.5 -130t-387 -164.5q8 -102 52.5 -158.5t146.5 -56.5q139 0 426 142l12 -152q-127 -70 -233.5 -110.5t-225.5 -40.5 q-205 0 -294 133q-113 -131 -404 -131q-184 0 -281.5 48t-133 147t-35.5 274zM297 424q0 -94 17.5 -152.5t77 -94.5t179.5 -36q170 0 230.5 67.5t60.5 211.5v233q0 96 -19.5 154.5t-78.5 90.5t-174 32q-121 0 -185.5 -36t-86 -96.5t-21.5 -150.5v-223zM1075 520 q223 90 302 126t113 71t34 90q0 57 -42 92t-132 35q-152 0 -213.5 -68.5t-61.5 -218.5v-127z" />
<glyph unicode="&#x178;" horiz-adv-x="1175" d="M35 1380h215l321 -782h33l322 782h215l-457 -1018v-362h-195v367zM380 1503v206h142v-206h-142zM651 1503v206h141v-206h-141z" />
<glyph unicode="&#x2c6;" horiz-adv-x="636" d="M63 1190l142 207h227l141 -207h-141l-98 135h-31l-100 -135h-140z" />
<glyph unicode="&#x2dc;" horiz-adv-x="669" d="M61 1196v109q52 28 83.5 38.5t64.5 10.5q49 0 115 -29q57 -25 90 -25q29 0 60.5 10.5t78.5 30.5v-106q-49 -29 -82 -40t-63 -11q-51 0 -117 28q-4 2 -33 13.5t-57 11.5q-53 0 -140 -41z" />
<glyph unicode="&#x2000;" horiz-adv-x="863" />
<glyph unicode="&#x2001;" horiz-adv-x="1726" />
<glyph unicode="&#x2002;" horiz-adv-x="863" />
<glyph unicode="&#x2003;" horiz-adv-x="1726" />
<glyph unicode="&#x2004;" horiz-adv-x="575" />
<glyph unicode="&#x2005;" horiz-adv-x="431" />
<glyph unicode="&#x2006;" horiz-adv-x="287" />
<glyph unicode="&#x2007;" horiz-adv-x="287" />
<glyph unicode="&#x2008;" horiz-adv-x="215" />
<glyph unicode="&#x2009;" horiz-adv-x="345" />
<glyph unicode="&#x200a;" horiz-adv-x="95" />
<glyph unicode="&#x2010;" horiz-adv-x="727" d="M109 436v144h509v-144h-509z" />
<glyph unicode="&#x2011;" horiz-adv-x="727" d="M109 436v144h509v-144h-509z" />
<glyph unicode="&#x2012;" horiz-adv-x="727" d="M109 436v144h509v-144h-509z" />
<glyph unicode="&#x2013;" horiz-adv-x="1306" d="M195 436v144h917v-144h-917z" />
<glyph unicode="&#x2014;" horiz-adv-x="1892" d="M283 436v144h1327v-144h-1327z" />
<glyph unicode="&#x2018;" horiz-adv-x="509" d="M109 963l165 417h127l-133 -417h-159z" />
<glyph unicode="&#x2019;" horiz-adv-x="509" d="M109 963l133 418h159l-168 -418h-124z" />
<glyph unicode="&#x201a;" horiz-adv-x="509" d="M109 -254l133 418h159l-168 -418h-124z" />
<glyph unicode="&#x201c;" horiz-adv-x="825" d="M109 963l165 417h127l-133 -417h-159zM426 963l166 417h125l-133 -417h-158z" />
<glyph unicode="&#x201d;" horiz-adv-x="825" d="M109 963l133 418h159l-168 -418h-124zM426 963l133 418h159l-168 -418h-124z" />
<glyph unicode="&#x201e;" horiz-adv-x="825" d="M109 -254l133 418h159l-168 -418h-124zM426 -254l133 418h159l-168 -418h-124z" />
<glyph unicode="&#x2022;" horiz-adv-x="434" d="M109 459v303h221v-303h-221z" />
<glyph unicode="&#x2026;" horiz-adv-x="1173" d="M109 0v240h174v-240h-174zM500 0v240h174v-240h-174zM891 0v240h174v-240h-174z" />
<glyph unicode="&#x202f;" horiz-adv-x="345" />
<glyph unicode="&#x2039;" horiz-adv-x="628" d="M109 473v82l321 346l90 -70l-248 -317l248 -317l-90 -68z" />
<glyph unicode="&#x203a;" horiz-adv-x="628" d="M109 197l247 317l-247 317l88 70l323 -346v-82l-323 -344z" />
<glyph unicode="&#x205f;" horiz-adv-x="431" />
<glyph unicode="&#x20ac;" horiz-adv-x="1335" d="M57 469v109h140v219h-140v108h142q4 158 46 263.5t161.5 169t345.5 63.5q170 0 409 -58l-8 -155q-115 14 -127 16q-207 25 -272 25q-152 0 -230 -41t-103.5 -109.5t-27.5 -173.5h400v-108h-400v-219h400v-109h-400q4 -109 31 -175.5t107.5 -104t236.5 -37.5q82 0 162 9 t223 32l8 -158l-53 -10q-115 -23 -192.5 -35.5t-155.5 -12.5q-227 0 -349 62.5t-165 168t-47 261.5h-142z" />
<glyph unicode="&#x2122;" horiz-adv-x="1685" d="M121 1270v110h528v-110h-198v-617h-132v617h-198zM731 653l2 727h232l153 -612h58v-12l159 624h230v-727h-125l8 613h-29l-190 -613h-160l-192 613h-27l6 -613h-125z" />
<glyph unicode="&#x25fc;" horiz-adv-x="1064" d="M0 0v1065h1065v-1065h-1065z" />
</font>
</defs>
</svg>
