<?xml version="1.0" encoding="UTF-8" standalone="no"?>
<svg
   xmlns:dc="http://purl.org/dc/elements/1.1/"
   xmlns:cc="http://creativecommons.org/ns#"
   xmlns:rdf="http://www.w3.org/1999/02/22-rdf-syntax-ns#"
   xmlns:svg="http://www.w3.org/2000/svg"
   xmlns="http://www.w3.org/2000/svg"
   xmlns:sodipodi="http://sodipodi.sourceforge.net/DTD/sodipodi-0.dtd"
   xmlns:inkscape="http://www.inkscape.org/namespaces/inkscape"
   inkscape:version="1.1-dev (1:0.92.0+devel+202001211713+adc4088)"
   sodipodi:docname="facilities.svg"
   viewBox="0 0 115.22627 75.316116"
   height="75.316116"
   width="115.22627"
   id="svg2"
   version="1.1">
  <metadata
     id="metadata8">
    <rdf:RDF>
      <cc:Work
         rdf:about="">
        <dc:format>image/svg+xml</dc:format>
        <dc:type
           rdf:resource="http://purl.org/dc/dcmitype/StillImage" />
        <dc:title></dc:title>
      </cc:Work>
    </rdf:RDF>
  </metadata>
  <defs
     id="defs6" />
  <sodipodi:namedview
     inkscape:current-layer="g10"
     inkscape:window-maximized="1"
     inkscape:window-y="26"
     inkscape:window-x="0"
     inkscape:cy="37.658058"
     inkscape:cx="57.613136"
     inkscape:zoom="7.6892186"
     showgrid="false"
     id="namedview4"
     inkscape:window-height="714"
     inkscape:window-width="1366"
     inkscape:pageshadow="2"
     inkscape:pageopacity="0"
     guidetolerance="10"
     gridtolerance="10"
     objecttolerance="10"
     borderopacity="1"
     bordercolor="#666666"
     pagecolor="#ffffff" />
  <g
     transform="translate(-2.0730867,-200.60712)"
     style="display:inline"
     id="g10"
     inkscape:label="Image"
     inkscape:groupmode="layer">
    <path
       sodipodi:nodetypes="ccc"
       inkscape:connector-curvature="0"
       id="path839"
       d="m 2.5589823,236.48392 c 0.2408298,-0.99241 3.0191184,-0.5624 4.90703,-0.6315 0.6575208,6.0968 1.4311625,11.82725 2.9953907,15.06341"
       style="display:inline;fill:none;stroke:#000000;stroke-width:0.999996px;stroke-linecap:butt;stroke-linejoin:miter;stroke-opacity:1" />
    <path
       sodipodi:nodetypes="cccc"
       inkscape:connector-curvature="0"
       id="path841"
       d="m 17.555214,249.14948 c -0.100591,-4.91194 -1.917633,-9.33943 -3.097537,-13.94675 5.767501,-2.4614 12.314369,-2.86665 18.814124,-3.3962 1.095766,4.30186 2.732673,9.50471 2.74831,12.00815"
       style="display:inline;fill:none;stroke:#000000;stroke-width:0.999996px;stroke-linecap:butt;stroke-linejoin:miter;stroke-opacity:1" />
    <path
       sodipodi:nodetypes="cccc"
       inkscape:connector-curvature="0"
       id="path851"
       d="m 46.045986,241.54647 c 0.04928,-2.56055 -1.13918,-6.56885 -1.972179,-10.16137 3.001612,-1.92666 8.02455,-2.13032 13.515338,-1.93518 0.587712,2.90254 1.33723,5.83874 1.545068,8.66221"
       style="fill:none;stroke:#000000;stroke-width:0.999996px;stroke-linecap:butt;stroke-linejoin:miter;stroke-opacity:1" />
    <path
       sodipodi:nodetypes="cccc"
       inkscape:connector-curvature="0"
       id="path853"
       d="m 63.732182,237.8862 c 0.124716,-1.40025 -0.764712,-4.69508 -2.325805,-9.2447 2.898687,-2.49918 7.343671,-1.41165 11.302525,-1.45171 0.741954,2.88375 1.623429,5.9579 1.516052,7.6826"
       style="display:inline;fill:none;stroke:#000000;stroke-width:0.999996px;stroke-linecap:butt;stroke-linejoin:miter;stroke-opacity:1" />
    <path
       sodipodi:nodetypes="cccc"
       inkscape:connector-curvature="0"
       id="path855"
       d="m 77.698365,234.16634 c -0.02326,-2.06745 -0.87146,-4.78633 -1.938478,-7.67805 1.55542,-1.89234 5.101687,-1.55356 8.60904,-1.2584 0.948643,2.41991 1.626274,4.72003 1.84333,6.81653"
       style="display:inline;fill:none;stroke:#000000;stroke-width:0.999996px;stroke-linecap:butt;stroke-linejoin:miter;stroke-opacity:1" />
    <path
       sodipodi:nodetypes="cccc"
       inkscape:connector-curvature="0"
       id="path857"
       d="m 97.767637,231.41659 c -0.587424,-2.61015 0.126096,-4.26744 0.698025,-6.0336 4.545748,-1.13247 8.801038,-0.3347 13.056118,0.46452 -0.58882,2.77381 -1.71891,5.69091 -1.01297,6.89083"
       style="fill:none;stroke:#000000;stroke-width:0.999996px;stroke-linecap:butt;stroke-linejoin:miter;stroke-opacity:1" />
    <path
       inkscape:connector-curvature="0"
       id="path863"
       d="M 3.3768803,253.87472 90.100511,232.01925 117.11583,234.59601 13.780699,275.3733 2.7085015,269.46557"
       style="display:inline;fill:none;stroke:#000000;stroke-width:0.999996px;stroke-linecap:butt;stroke-linejoin:miter;stroke-opacity:1" />
    <path
       inkscape:connector-curvature="0"
       id="path865"
       d="m 27.083621,201.14116 0.961401,18.83064 19.972492,-1.09989 -0.05725,-16.42328 z"
       style="display:inline;fill:none;stroke:#000000;stroke-width:0.999996px;stroke-linecap:butt;stroke-linejoin:miter;stroke-opacity:1" />
    <path
       inkscape:connector-curvature="0"
       id="path867"
       d="M 28.563372,211.9979 47.12133,211.86629"
       style="display:inline;fill:none;stroke:#000000;stroke-width:0.999996px;stroke-linecap:butt;stroke-linejoin:miter;stroke-opacity:1" />
    <path
       inkscape:connector-curvature="0"
       id="path869"
       d="m 3.2122776,203.11917 8.4780694,0.44585 1.319685,16.57174 -10.0017124,1.00716"
       style="fill:none;stroke:#000000;stroke-width:0.999996px;stroke-linecap:butt;stroke-linejoin:miter;stroke-opacity:1" />
  </g>
</svg>
