<?xml version="1.0" encoding="UTF-8" standalone="no"?>
<svg
   xmlns:dc="http://purl.org/dc/elements/1.1/"
   xmlns:cc="http://creativecommons.org/ns#"
   xmlns:rdf="http://www.w3.org/1999/02/22-rdf-syntax-ns#"
   xmlns:svg="http://www.w3.org/2000/svg"
   xmlns="http://www.w3.org/2000/svg"
   xmlns:sodipodi="http://sodipodi.sourceforge.net/DTD/sodipodi-0.dtd"
   xmlns:inkscape="http://www.inkscape.org/namespaces/inkscape"
   inkscape:version="1.1-dev (1:0.92.0+devel+202002191827+c2cc9a0)"
   sodipodi:docname="services.svg"
   viewBox="0 0 975.60489 681.46457"
   height="681.4646"
   width="975.60492"
   xml:space="preserve"
   id="svg2"
   version="1.1"><metadata
     id="metadata8"><rdf:RDF><cc:Work
         rdf:about=""><dc:format>image/svg+xml</dc:format><dc:type
           rdf:resource="http://purl.org/dc/dcmitype/StillImage" /><dc:title /></cc:Work></rdf:RDF></metadata><defs
     id="defs6"><clipPath
       id="clipPath20"
       clipPathUnits="userSpaceOnUse"><path
         inkscape:connector-curvature="0"
         id="path18"
         d="M 0,980 H 1400 V 0 H 0 Z" /></clipPath></defs><sodipodi:namedview
     inkscape:current-layer="layer2"
     inkscape:window-maximized="1"
     inkscape:window-y="26"
     inkscape:window-x="0"
     inkscape:cy="340.7323"
     inkscape:cx="487.80246"
     inkscape:zoom="0.79707484"
     showgrid="false"
     id="namedview4"
     inkscape:window-height="714"
     inkscape:window-width="1366"
     inkscape:pageshadow="2"
     inkscape:pageopacity="0"
     guidetolerance="10"
     gridtolerance="10"
     objecttolerance="10"
     borderopacity="1"
     bordercolor="#666666"
     pagecolor="#ffffff" /><g
     transform="translate(-227.5934,-235.63528)"
     style="display:inline"
     inkscape:label="services"
     id="layer2"
     inkscape:groupmode="layer"><g
       style="fill:none;stroke:#000000;stroke-width:4.50000011;stroke-miterlimit:4;stroke-dasharray:none;stroke-opacity:1"
       id="g918"
       transform="matrix(1.3333333,0,0,-1.3333333,450.03206,498.37339)"><path
         d="m 0,0 c 1.445,13.651 31.638,35.654 31.638,35.654 0,0 4.979,5.139 9.798,-2.57 4.818,-7.709 6.746,-19.112 6.746,-19.112 C 44.166,12.848 7.227,1.927 0,0 m -102.174,85.014 c -0.955,0.58 -2.984,1.15 -5.507,1.658 h 8.13 c -1.812,-0.305 -2.623,-1.658 -2.623,-1.658 M 66.364,8.996 C 64.849,29.029 45.651,65.91 41.509,70.052 37.367,74.194 26.2,76.896 22.057,76.896 c -4.143,0 -3.962,8.645 0,9.726 3.962,1.081 17.47,0 17.47,0 7.024,9.367 -0.733,36.336 -6.2,48.834 l 11.867,53.87 c -17.784,9.416 -48.121,4.97 -48.121,4.97 l -5.777,-56.805 c -6.119,-9.664 -20.697,-34.607 -11.667,-48.798 7.849,0.736 18.151,-0.246 18.151,-0.246 0,0 3.679,-0.859 2.454,-9.197 -1.227,-8.341 -26.983,-11.898 -34.831,-13.368 -7.849,-1.472 -27.718,-28.331 -27.718,-29.067 0,-0.737 -3.557,-11.283 -6.255,-0.613 -2.698,10.669 -13.001,35.444 -21.585,45.01 -3.408,3.796 -6,5.174 -7.892,5.46 h 49.836 v 3.065 h -117.493 v -3.065 h 37.576 c 1.449,-2.193 6.869,-5.998 10.256,-9.385 4.844,-4.843 13.123,-3.925 20.481,-7.359 7.359,-3.434 15.822,-43.538 18.888,-54.208 3.066,-10.67 7.848,-10.792 16.752,-6.546 -7.413,-7.414 -26.17,-30.898 -33.441,-61.237 -9.067,-37.829 -11.781,-82.115 -2.667,-154.71 7.539,-0.348 19.285,-0.08 32.345,0.49 5.081,-18.959 14.332,-52.18 13.34,-66.727 -1.089,-15.962 -8.526,-24.85 -4.899,-34.827 3.628,-9.977 16.508,-4.067 18.504,8.707 1.303,8.346 0.181,22.312 3.627,27.391 3.447,5.079 0.363,9.978 -3.265,16.326 -3.161,5.531 -5.356,32.666 -5.87,50.244 7.548,0.443 15.026,0.929 21.955,1.404 9.814,-14.147 30.937,-47.734 37.247,-67.611 7.256,-22.856 10.159,-24.489 9.07,-31.746 -1.089,-7.256 -0.545,-11.972 7.256,-8.782 9.267,3.79 8.888,11.685 8.888,23.476 0,11.791 -5.796,20.498 -4.888,26.303 0.906,5.805 -3.265,14.33 -9.977,15.963 -5.862,1.426 -12.285,26.926 -20.827,44.359 4.826,0.376 7.685,0.612 7.685,0.612 -6.303,28.277 -14.589,73.484 -18.371,97.979 -3.782,24.494 -2.252,58.807 0,61.058 2.251,2.251 5.042,6.663 6.663,12.787 1.621,6.125 -0.18,20.352 7.564,20.352 7.745,0 36.202,2.161 43.947,3.783 7.744,1.62 15.309,-0.058 14.229,14.228"
         style="fill:none;fill-opacity:1;fill-rule:nonzero;stroke:#000000;stroke-width:4.50000011;stroke-miterlimit:4;stroke-dasharray:none;stroke-opacity:1"
         id="path916"
         inkscape:connector-curvature="0" /></g><g
       style="fill:none;stroke:#000000;stroke-width:4.50000011;stroke-miterlimit:4;stroke-dasharray:none;stroke-opacity:1"
       id="g924"
       transform="matrix(1.3333333,0,0,-1.3333333,642.12279,493.93548)"><path
         d="m 0,0 c 1,1.848 1.602,3.023 1.516,3.023 -0.415,0 -13.409,8.316 -13.409,8.316 0,0 -4.885,3.119 -3.118,4.885 1.766,1.769 3.949,3.847 8.315,3.847 4.366,0 12.838,9.822 14.969,11.953 2.131,2.132 3.431,2.183 3.431,2.183 0,0 2.91,-30.457 2.91,-32.95 0,-0.728 0.301,-3.096 0.641,-6.241 C 10.221,-3.994 4.19,-1.556 0,0 m 169.622,-295.659 c -5.863,0 -19.299,8.796 -21.987,14.415 l 2.932,5.373 c 0,0 -14.902,28.585 -17.345,46.418 -1.846,13.472 -4.527,41.71 -5.728,55.25 2.875,0.28 4.507,0.45 4.507,0.45 0,0 -14.902,101.138 -14.902,113.842 0,12.702 3.421,42.995 -4.154,61.072 -7.573,18.08 -6.841,19.789 -6.841,19.789 0,0 22.232,-19.543 39.821,-15.879 17.59,3.665 14.169,16.612 14.169,30.293 0,13.681 -1.221,12.459 -1.221,12.459 l 5.619,6.597 -5.131,17.344 c 0,0 -5.72,-0.746 -12.31,-1.564 -1.291,7.113 -2.1,17.695 -0.881,21.352 1.465,4.398 -2.442,12.948 -2.442,17.346 0,4.398 -19.789,13.435 -27.119,9.771 0,0 -3.297,-2.32 0,-5.618 3.299,-3.299 8.918,-10.871 6.108,-13.681 -2.809,-2.809 -0.733,-9.284 3.664,-13.682 2.598,-2.596 4.427,-10.9 5.491,-17.265 -1.948,-0.2 -3.4,-0.323 -4.025,-0.323 -3.42,0 1.466,-15.391 1.466,-15.391 0,0 -10.993,4.396 -13.924,7.329 -2.932,2.931 -13.682,16.856 -19.788,19.299 -6.108,2.443 -16.613,4.641 -19.545,7.572 -2.931,2.932 -3.438,4.681 -3.438,4.681 2.496,2.493 8.732,12.058 7.381,21.829 -1.352,9.77 -3.743,18.504 -4.263,22.87 -0.357,2.994 -2.328,7.799 -5.041,11.461 h -10e-4 c -0.185,0.25 -0.377,0.489 -0.569,0.728 l -0.158,0.202 c -0.001,0.001 -0.002,0.002 -0.003,0.003 -0.109,0.132 -0.221,0.255 -0.332,0.383 -2.31,3.248 6.242,9.83 1.783,19.684 -4.642,10.261 -20.277,25.163 -41.531,14.413 C 8.63,172.414 -3.583,156.78 4.356,134.548 c 6.782,-18.99 17.038,-19.258 23.996,-14.822 0.894,-3.058 1.857,-5.985 2.686,-8.283 2.288,-6.339 4.523,-8.784 7.588,-11.849 3.067,-3.066 2.911,-6.863 -0.727,-8.004 C 34.261,90.446 11.235,85.611 -3.577,70.799 -18.39,55.985 -51.759,33.324 -57.527,27.556 c -5.769,-5.771 -6.757,-22.868 7.796,-31.289 14.553,-8.42 16.736,-8.627 16.736,-8.627 l 1.767,-11.955 h 17.568 c 0,0 1.494,2.619 3.543,6.233 3.387,-2.834 9.352,-7.59 12.395,-8.604 4.398,-1.466 9.377,0 13.361,0 h 0.001 c -0.227,-1.107 -0.526,-2.072 -0.922,-2.827 -3.43,-6.55 -1.872,-19.646 -2.392,-38.046 -0.519,-18.398 0.702,-49.762 0.702,-49.762 l -13.68,-50.325 c 0,0 4.92,-1.617 12.671,-3.617 -4.089,-30.098 -0.771,-82.83 -2.655,-100.21 -2.199,-20.276 1.099,-16 -13.926,-31.024 -15.023,-15.024 9.528,-15.881 20.521,-11.239 10.994,4.643 8.308,1.466 17.834,6.841 9.528,5.374 5.864,25.651 7.574,36.155 1.424,8.755 9.464,71.608 12.105,92.327 5.461,-0.39 10.942,-0.511 16.233,-0.226 4.638,0.25 9.247,0.531 13.742,0.829 5.255,-35.68 19.047,-113.554 21.436,-122.245 2.687,-9.771 11.237,-5.131 21.743,-5.131 10.505,0 26.628,-4.157 42.996,-1.101 16.367,3.057 5.863,10.628 0,10.628"
         style="fill:none;fill-opacity:1;fill-rule:nonzero;stroke:#000000;stroke-width:4.50000011;stroke-miterlimit:4;stroke-dasharray:none;stroke-opacity:1"
         id="path922"
         inkscape:connector-curvature="0" /></g><g
       style="fill:none;stroke:#000000;stroke-width:4.50000011;stroke-miterlimit:4;stroke-dasharray:none;stroke-opacity:1"
       id="g930"
       transform="matrix(1.3333333,0,0,-1.3333333,1120.9203,414.95583)"><path
         d="M 0,0 V 6.369 L 9.022,5.043 Z m -87.838,-341.801 c -1.102,-3.461 -5.1,-10.906 -6.178,-17.351 -4.032,1.618 -7.225,3.227 -7.225,5.295 0,6.08 12.553,34.717 15.691,43.936 0,0 -0.431,-26.041 -2.288,-31.88 m -25.741,236.712 c 0,-5.042 -2.653,-10.083 -6.635,-10.083 -3.98,0 -37.417,38.213 -37.417,38.213 2.124,2.123 14.861,23.618 20.434,32.375 3.98,-6.634 13.799,-26.271 17.514,-29.986 3.715,-3.717 6.104,-12.74 6.104,-16.454 z M 19.372,13.8 c -46.971,2.388 -62.096,5.308 -52.809,-3.982 3.184,-3.184 25.742,-3.714 25.742,-3.714 0,0 3.669,-1.786 -4.004,-9.312 -5.818,-5.705 -9.53,-15.634 -14.572,-26.514 -5.043,-10.88 -9.82,-20.168 -14.065,-24.413 0,0 -7.431,15.656 -9.819,24.413 -2.388,8.758 -10.085,26.804 -14.861,31.58 -4.776,4.776 -10.88,4.777 -13.534,7.431 -2.654,2.653 -3.979,5.837 -10.084,5.837 0,0 10.131,12.611 11.942,18.045 3.185,9.554 0.383,15.377 0.193,20.703 -0.049,1.375 -0.091,3.456 -0.324,5.86 l -6.122,70.874 c 0,0 -21.91,8.73 -50.754,-4.743 l 8.622,-75.335 h 0.003 c -0.199,-6.795 1.222,-11.344 3.444,-13.566 3.169,-3.171 5.718,-2.983 4.102,-6.34 -1.616,-3.358 -3.48,-11.191 -5.221,-12.931 -1.741,-1.74 -2.86,1.74 -5.595,-4.849 -2.736,-6.589 -4.353,-10.692 -9.823,-13.8 -5.469,-3.109 -13.674,-10.194 -16.038,-23.001 -2.361,-12.806 -14.297,-24.865 -19.395,-36.055 -5.097,-11.19 -9.634,-22.938 -6.837,-25.735 2.797,-2.798 42.495,-36.755 51.542,-42.148 8.236,-4.909 11.99,-3.232 11.99,-3.232 0,0 0.168,-17.307 2.718,-36.56 2.551,-19.253 12.161,-50.243 7.062,-83.195 -5.101,-32.952 -10.072,-74.409 -14.711,-85.126 -5.349,-12.355 -10.886,-28.735 -5.884,-33.737 3.04,-3.04 15.278,-1.836 20.398,-3.334 7.272,-2.129 25.606,-4.576 29.052,1.065 3.032,0.17 6.152,0.757 10.6,0.757 9.553,0 26.273,-2.654 27.599,5.043 1.622,9.415 -27.333,5.306 -27.333,16.187 0,10.88 5.778,48.648 7.164,59.974 1.593,13.003 11.677,22.559 15.657,43.258 3.981,20.699 6.37,73.241 2.654,101.106 -3.715,27.865 -4.776,54.668 -10.614,67.671 0,0 9.817,-13.269 16.187,-9.023 6.369,4.246 13.534,15.921 18.576,30.252 5.042,14.33 10.616,44.316 23.619,51.747 13.002,7.43 18.044,8.757 18.044,8.757 0,0 31.315,-1.857 34.765,1.593 3.449,3.449 7.695,6.104 -39.276,8.492"
         style="fill:none;fill-opacity:1;fill-rule:nonzero;stroke:#000000;stroke-width:4.50000011;stroke-miterlimit:4;stroke-dasharray:none;stroke-opacity:1"
         id="path928"
         inkscape:connector-curvature="0" /></g></g></svg>
