<?xml version="1.0" encoding="UTF-8" standalone="no"?>
<svg
   xmlns:dc="http://purl.org/dc/elements/1.1/"
   xmlns:cc="http://creativecommons.org/ns#"
   xmlns:rdf="http://www.w3.org/1999/02/22-rdf-syntax-ns#"
   xmlns:svg="http://www.w3.org/2000/svg"
   xmlns="http://www.w3.org/2000/svg"
   xmlns:sodipodi="http://sodipodi.sourceforge.net/DTD/sodipodi-0.dtd"
   xmlns:inkscape="http://www.inkscape.org/namespaces/inkscape"
   inkscape:version="1.1-dev (1:0.92.0+devel+202001211713+adc4088)"
   height="60"
   width="60"
   sodipodi:docname="email.svg"
   id="svg48"
   xml:space="preserve"
   viewBox="0 0 60 60"
   y="0px"
   x="0px"
   version="1.1"><metadata
     id="metadata54"><rdf:RDF><cc:Work
         rdf:about=""><dc:format>image/svg+xml</dc:format><dc:type
           rdf:resource="http://purl.org/dc/dcmitype/StillImage" /><dc:title></dc:title></cc:Work></rdf:RDF></metadata><defs
     id="defs52" /><sodipodi:namedview
     inkscape:current-layer="svg48"
     inkscape:window-maximized="1"
     inkscape:window-y="26"
     inkscape:window-x="0"
     inkscape:cy="30"
     inkscape:cx="30"
     inkscape:zoom="9.4833333"
     showgrid="false"
     id="namedview50"
     inkscape:window-height="714"
     inkscape:window-width="1366"
     inkscape:pageshadow="2"
     inkscape:pageopacity="0"
     guidetolerance="10"
     gridtolerance="10"
     objecttolerance="10"
     borderopacity="1"
     bordercolor="#666666"
     pagecolor="#ffffff" /><style
     id="style2"
     type="text/css">
	.st0{display:none;}
	.st1{display:inline;}
	.st2{fill:none;stroke:#B3B3B3;stroke-width:0.1;stroke-miterlimit:10;}
</style><g
     transform="translate(-2,-2)"
     id="g28"
     class="st0"><g
       id="g26"
       class="st1"><rect
         id="rect4"
         height="60"
         width="60"
         class="st2"
         y="2"
         x="2" /><line
         id="line6"
         y2="62"
         x2="32"
         y1="2"
         x1="32"
         class="st2" /><line
         id="line8"
         y2="32"
         x2="2"
         y1="32"
         x1="62"
         class="st2" /><line
         id="line10"
         y2="62"
         x2="62"
         y1="2"
         x1="2"
         class="st2" /><rect
         id="rect12"
         height="44"
         width="44"
         class="st2"
         y="10"
         x="10" /><line
         id="line14"
         y2="62"
         x2="2"
         y1="2"
         x1="62"
         class="st2" /><line
         id="line16"
         y2="2"
         x2="32"
         y1="32"
         x1="2"
         class="st2" /><line
         id="line18"
         y2="32"
         x2="62"
         y1="2"
         x1="32"
         class="st2" /><line
         id="line20"
         y2="62"
         x2="32"
         y1="32"
         x1="62"
         class="st2" /><line
         id="line22"
         y2="32"
         x2="2"
         y1="62"
         x1="32"
         class="st2" /><circle
         id="circle24"
         r="21"
         cy="32"
         cx="32"
         class="st2" /></g></g><g
     id="g886"><polygon
       points="2,30.6 2,55.4 27.7,43 "
       id="polygon30"
       transform="translate(-2,-2)" /><polygon
       points="62,30.6 36.3,43 62,55.4 "
       id="polygon32"
       transform="translate(-2,-2)" /><path
       d="m 32,42.1 -2,1 -2,-1 L 0,55.6 V 57 c 0,1.7 1.3,3 3,3 h 54 c 1.7,0 3,-1.3 3,-3 v -1.4 z"
       id="path34"
       inkscape:connector-curvature="0" /><path
       d="M 4,19.1 1.6,20.8 C 0.6,21.6 0,22.8 0,24 v 2.3 l 4,1.9 z"
       id="path36"
       inkscape:connector-curvature="0" /><path
       d="M 58.4,20.8 56,19.1 v 9.2 l 4,-1.9 V 24 c 0,-1.2 -0.6,-2.4 -1.6,-3.2 z"
       id="path38"
       inkscape:connector-curvature="0" /><path
       d="M 6,0 V 29.3 L 30,40.9 54,29.3 V 0 Z m 35.1,19.3 c -0.4,1.1 -1,1.9 -1.8,2.6 C 38.5,22.5 38,23 37,23 35,23 34,22 33.7,21 h -0.2 c -1,1 -2.2,1.8 -3.8,1.8 -1.6,0 -2.9,-0.5 -3.8,-1.4 -0.9,-0.9 -1.4,-2.3 -1.4,-4 0,-1.9 0.6,-3.5 1.8,-4.6 1.2,-1.2 2.8,-1.8 4.8,-1.8 0.8,0 1.6,0.1 2.6,0.2 1,0.1 1.7,0.3 2.3,0.5 l -0.3,6.7 c 0,1.3 0.3,1.9 1,1.9 0.6,0 1,-0.4 1.4,-1.3 0.3,-0.9 0.5,-2 0.5,-3.3 0,-1.5 -0.3,-2.8 -0.9,-3.9 C 37.1,10.7 36.2,9.8 35.1,9.2 34,8.6 32.7,8.3 31.3,8.3 c -1.8,0 -3.4,0.4 -4.8,1.1 -1.4,0.8 -2.4,1.8 -3.1,3.3 -0.7,1.4 -1.1,3.1 -1.1,4.9 0,2.5 0.7,4.4 2,5.8 1.3,1.3 3.3,2 5.8,2 1,0 2,-0.1 3.2,-0.3 1.2,-0.2 2.4,-0.8 3.5,-1.2 v 3 c -2,0.8 -4.2,1.1 -6.6,1.1 -3.5,0 -6.2,-0.9 -8.1,-2.7 -1.9,-1.8 -2.9,-4.4 -2.9,-7.6 0,-2.3 0.5,-4.3 1.5,-6.1 1,-1.8 2.4,-3.3 4.2,-4.3 1.8,-1 3.9,-1.6 6.3,-1.6 2,0 3.8,0.4 5.4,1.2 1.6,0.8 2.8,2 3.7,3.5 0.9,1.5 1.3,3.3 1.3,5.2 0.1,1.4 -0.1,2.6 -0.5,3.7 z"
       id="path40"
       inkscape:connector-curvature="0" /><path
       d="m 28.7,14.5 c -0.6,0.7 -1,1.7 -1,2.9 0,1.9 0.8,2.9 2.4,2.9 0.8,0 1.4,-0.3 1.9,-0.9 0.4,-0.6 0.7,-1.5 0.8,-2.8 l 0.2,-3 c -0.5,-0.1 -1,-0.2 -1.6,-0.2 -1.2,0 -2.1,0.4 -2.7,1.1 z"
       id="path42"
       inkscape:connector-curvature="0" /></g></svg>
