<?xml version="1.0" encoding="UTF-8" standalone="no"?>
<svg
   xmlns:osb="http://www.openswatchbook.org/uri/2009/osb"
   xmlns:dc="http://purl.org/dc/elements/1.1/"
   xmlns:cc="http://creativecommons.org/ns#"
   xmlns:rdf="http://www.w3.org/1999/02/22-rdf-syntax-ns#"
   xmlns:svg="http://www.w3.org/2000/svg"
   xmlns="http://www.w3.org/2000/svg"
   xmlns:xlink="http://www.w3.org/1999/xlink"
   xmlns:sodipodi="http://sodipodi.sourceforge.net/DTD/sodipodi-0.dtd"
   xmlns:inkscape="http://www.inkscape.org/namespaces/inkscape"
   inkscape:version="1.1-dev (1:0.92.0+devel+202002191827+c2cc9a0)"
   sodipodi:docname="logo.svg"
   width="508.88937"
   height="509.93698"
   viewBox="0 0 134.64333 134.92083"
   version="1.1"
   id="svg8"
   inkscape:export-filename="/home/kilisio/google_drive/projects/software/work/grand_kivulini/src/index/favicon.png"
   inkscape:export-xdpi="96.576637"
   inkscape:export-ydpi="96.576637">
  <metadata
     id="metadata7">
    <rdf:RDF>
      <cc:Work
         rdf:about="">
        <dc:format>image/svg+xml</dc:format>
        <dc:type
           rdf:resource="http://purl.org/dc/dcmitype/StillImage" />
        <dc:title />
      </cc:Work>
    </rdf:RDF>
  </metadata>
  <defs
     id="defs5">
    <inkscape:path-effect
       lpeversion="1"
       is_visible="true"
       id="path-effect4849"
       effect="spiro" />
    <inkscape:path-effect
       lpeversion="1"
       is_visible="true"
       id="path-effect4847"
       effect="spiro" />
    <inkscape:path-effect
       lpeversion="1"
       is_visible="true"
       id="path-effect4845"
       effect="spiro" />
    <inkscape:path-effect
       lpeversion="1"
       is_visible="true"
       id="path-effect4217"
       effect="spiro" />
    <inkscape:path-effect
       lpeversion="1"
       is_visible="true"
       id="path-effect4215"
       effect="spiro" />
    <inkscape:path-effect
       lpeversion="1"
       is_visible="true"
       id="path-effect4213"
       effect="spiro" />
    <inkscape:path-effect
       lpeversion="1"
       is_visible="true"
       id="path-effect3585"
       effect="spiro" />
    <inkscape:path-effect
       lpeversion="1"
       is_visible="true"
       id="path-effect3583"
       effect="spiro" />
    <inkscape:path-effect
       lpeversion="1"
       is_visible="true"
       id="path-effect3581"
       effect="spiro" />
    <inkscape:path-effect
       lpeversion="1"
       is_visible="true"
       id="path-effect2953"
       effect="spiro" />
    <inkscape:path-effect
       lpeversion="1"
       is_visible="true"
       id="path-effect2951"
       effect="spiro" />
    <inkscape:path-effect
       lpeversion="1"
       is_visible="true"
       id="path-effect2949"
       effect="spiro" />
    <inkscape:path-effect
       effect="spiro"
       id="path-effect2319"
       is_visible="true"
       lpeversion="1" />
    <inkscape:path-effect
       effect="spiro"
       id="path-effect2317"
       is_visible="true"
       lpeversion="1" />
    <inkscape:path-effect
       effect="spiro"
       id="path-effect2315"
       is_visible="true"
       lpeversion="1" />
    <linearGradient
       osb:paint="solid"
       id="linearGradient2206">
      <stop
         id="stop2204"
         offset="0"
         style="stop-color:#000000;stop-opacity:1;" />
    </linearGradient>
    <linearGradient
       osb:paint="solid"
       id="linearGradient2200">
      <stop
         id="stop2198"
         offset="0"
         style="stop-color:#1c0500;stop-opacity:1;" />
    </linearGradient>
    <linearGradient
       osb:paint="solid"
       id="linearGradient2194">
      <stop
         id="stop2192"
         offset="0"
         style="stop-color:#380b00;stop-opacity:1;" />
    </linearGradient>
    <linearGradient
       osb:paint="solid"
       id="linearGradient2188">
      <stop
         id="stop2186"
         offset="0"
         style="stop-color:#551000;stop-opacity:1;" />
    </linearGradient>
    <linearGradient
       osb:paint="solid"
       id="linearGradient2182">
      <stop
         id="stop2180"
         offset="0"
         style="stop-color:#711600;stop-opacity:1;" />
    </linearGradient>
    <linearGradient
       osb:paint="solid"
       id="linearGradient2176">
      <stop
         id="stop2174"
         offset="0"
         style="stop-color:#8d1b00;stop-opacity:1;" />
    </linearGradient>
    <linearGradient
       osb:paint="solid"
       id="linearGradient2170">
      <stop
         id="stop2168"
         offset="0"
         style="stop-color:#aa2100;stop-opacity:1;" />
    </linearGradient>
    <linearGradient
       osb:paint="solid"
       id="linearGradient2164">
      <stop
         id="stop2162"
         offset="0"
         style="stop-color:#c62600;stop-opacity:1;" />
    </linearGradient>
    <linearGradient
       gradientTransform="translate(646.6774,-18.60803)"
       osb:paint="solid"
       id="linearGradient2158">
      <stop
         id="stop2156"
         offset="0"
         style="stop-color:#e22c00;stop-opacity:1;" />
    </linearGradient>
    <linearGradient
       id="linearGradient2152">
      <stop
         id="stop2150"
         offset="0"
         style="stop-color:#ff3200;stop-opacity:1;" />
    </linearGradient>
    <linearGradient
       osb:paint="solid"
       id="linearGradient1832">
      <stop
         id="stop1830"
         offset="0"
         style="stop-color:#000000;stop-opacity:1;" />
    </linearGradient>
    <linearGradient
       osb:paint="solid"
       id="linearGradient1826">
      <stop
         id="stop1824"
         offset="0"
         style="stop-color:#1c1c1c;stop-opacity:1;" />
    </linearGradient>
    <linearGradient
       osb:paint="solid"
       id="linearGradient1820">
      <stop
         id="stop1818"
         offset="0"
         style="stop-color:#383838;stop-opacity:1;" />
    </linearGradient>
    <linearGradient
       osb:paint="solid"
       id="linearGradient1814">
      <stop
         id="stop1812"
         offset="0"
         style="stop-color:#545454;stop-opacity:1;" />
    </linearGradient>
    <linearGradient
       osb:paint="solid"
       id="linearGradient1808">
      <stop
         id="stop1806"
         offset="0"
         style="stop-color:#717171;stop-opacity:1;" />
    </linearGradient>
    <linearGradient
       osb:paint="solid"
       id="linearGradient1802">
      <stop
         id="stop1800"
         offset="0"
         style="stop-color:#8d8d8d;stop-opacity:1;" />
    </linearGradient>
    <linearGradient
       gradientTransform="translate(-15.875,16.933332)"
       osb:paint="solid"
       id="linearGradient1796">
      <stop
         id="stop1794"
         offset="0"
         style="stop-color:#aaaaaa;stop-opacity:1;" />
    </linearGradient>
    <linearGradient
       gradientTransform="translate(500.2532,579.9668)"
       osb:paint="solid"
       id="linearGradient1790">
      <stop
         id="stop1788"
         offset="0"
         style="stop-color:#c6c6c6;stop-opacity:1;" />
    </linearGradient>
    <linearGradient
       osb:paint="solid"
       id="linearGradient1784">
      <stop
         id="stop1782"
         offset="0"
         style="stop-color:#e2e2e2;stop-opacity:1;" />
    </linearGradient>
    <linearGradient
       id="linearGradient1778">
      <stop
         id="stop1776"
         offset="0"
         style="stop-color:#ffffff;stop-opacity:1;" />
    </linearGradient>
    <linearGradient
       id="linearGradient1422">
      <stop
         id="stop1420"
         offset="0"
         style="stop-color:#000000;stop-opacity:1;" />
    </linearGradient>
    <linearGradient
       id="linearGradient1416">
      <stop
         id="stop1414"
         offset="0"
         style="stop-color:#03001c;stop-opacity:1;" />
    </linearGradient>
    <linearGradient
       id="linearGradient1410">
      <stop
         id="stop1408"
         offset="0"
         style="stop-color:#070038;stop-opacity:1;" />
    </linearGradient>
    <linearGradient
       id="linearGradient1404">
      <stop
         id="stop1402"
         offset="0"
         style="stop-color:#0b0054;stop-opacity:1;" />
    </linearGradient>
    <linearGradient
       id="linearGradient1398">
      <stop
         id="stop1396"
         offset="0"
         style="stop-color:#0f0071;stop-opacity:1;" />
    </linearGradient>
    <linearGradient
       id="linearGradient1392">
      <stop
         id="stop1390"
         offset="0"
         style="stop-color:#12008d;stop-opacity:1;" />
    </linearGradient>
    <linearGradient
       id="linearGradient1386">
      <stop
         id="stop1384"
         offset="0"
         style="stop-color:#1600aa;stop-opacity:1;" />
    </linearGradient>
    <linearGradient
       id="linearGradient1380">
      <stop
         id="stop1378"
         offset="0"
         style="stop-color:#1a00c6;stop-opacity:1;" />
    </linearGradient>
    <linearGradient
       id="linearGradient1374">
      <stop
         id="stop1372"
         offset="0"
         style="stop-color:#1e00e2;stop-opacity:1;" />
    </linearGradient>
    <linearGradient
       id="linearGradient1368">
      <stop
         id="stop1366"
         offset="0"
         style="stop-color:#2200ff;stop-opacity:1;" />
    </linearGradient>
    <linearGradient
       id="linearGradient1102"
       inkscape:collect="always">
      <stop
         id="stop1098"
         offset="0"
         style="stop-color:#fffee2;stop-opacity:1" />
      <stop
         style="stop-color:#fffd8d;stop-opacity:1"
         offset="0.07307322"
         id="stop1110" />
      <stop
         style="stop-color:#fffc38;stop-opacity:1"
         offset="0.1148544"
         id="stop1108" />
      <stop
         style="stop-color:#ff4800;stop-opacity:1"
         offset="0.12142076"
         id="stop1106" />
      <stop
         id="stop1100"
         offset="1"
         style="stop-color:#ffcf00;stop-opacity:0" />
    </linearGradient>
    <linearGradient
       id="linearGradient2586"
       osb:paint="solid">
      <stop
         style="stop-color:#ffffff;stop-opacity:1;"
         offset="0"
         id="stop2584" />
    </linearGradient>
    <linearGradient
       id="linearGradient2580">
      <stop
         style="stop-color:#fffee2;stop-opacity:1;"
         offset="0"
         id="stop2578" />
    </linearGradient>
    <linearGradient
       gradientTransform="matrix(1.1252848,0,0,1.1252848,80.037612,-124.8619)"
       id="linearGradient2574">
      <stop
         style="stop-color:#fffec6;stop-opacity:1;"
         offset="0"
         id="stop2572" />
    </linearGradient>
    <linearGradient
       id="linearGradient2568">
      <stop
         style="stop-color:#fffeaa;stop-opacity:1;"
         offset="0"
         id="stop2566" />
    </linearGradient>
    <linearGradient
       id="linearGradient2562">
      <stop
         style="stop-color:#fffd8d;stop-opacity:1;"
         offset="0"
         id="stop2560" />
    </linearGradient>
    <linearGradient
       id="linearGradient2556">
      <stop
         style="stop-color:#fffd71;stop-opacity:1;"
         offset="0"
         id="stop2554" />
    </linearGradient>
    <linearGradient
       id="linearGradient2550">
      <stop
         style="stop-color:#fffd55;stop-opacity:1;"
         offset="0"
         id="stop2548" />
    </linearGradient>
    <linearGradient
       gradientTransform="translate(-17.471742,14.81667)"
       id="linearGradient2544">
      <stop
         style="stop-color:#fffc38;stop-opacity:1;"
         offset="0"
         id="stop2542" />
    </linearGradient>
    <linearGradient
       id="linearGradient2538">
      <stop
         style="stop-color:#fffc1c;stop-opacity:1;"
         offset="0"
         id="stop2536" />
    </linearGradient>
    <linearGradient
       id="linearGradient2532">
      <stop
         style="stop-color:#fffc00;stop-opacity:1;"
         offset="0"
         id="stop2530" />
    </linearGradient>
    <linearGradient
       id="linearGradient2526">
      <stop
         style="stop-color:#ffe500;stop-opacity:1;"
         offset="0"
         id="stop2524" />
    </linearGradient>
    <linearGradient
       id="linearGradient2520">
      <stop
         style="stop-color:#ffcf00;stop-opacity:1;"
         offset="0"
         id="stop2518" />
    </linearGradient>
    <linearGradient
       gradientTransform="translate(-111.8392,-19.921142)"
       id="linearGradient2514">
      <stop
         style="stop-color:#ffb800;stop-opacity:1;"
         offset="0"
         id="stop2512" />
    </linearGradient>
    <linearGradient
       gradientTransform="translate(97.380021,-37.634287)"
       id="linearGradient2508">
      <stop
         style="stop-color:#ffa200;stop-opacity:1;"
         offset="0"
         id="stop2506" />
    </linearGradient>
    <linearGradient
       gradientTransform="translate(-73.791849,-0.06285851)"
       id="linearGradient2502">
      <stop
         style="stop-color:#ff8b00;stop-opacity:1;"
         offset="0"
         id="stop2500" />
    </linearGradient>
    <linearGradient
       id="linearGradient2496">
      <stop
         style="stop-color:#ff7500;stop-opacity:1;"
         offset="0"
         id="stop2494" />
    </linearGradient>
    <linearGradient
       gradientTransform="translate(-1.6136618,3.1750001)"
       id="linearGradient2490">
      <stop
         style="stop-color:#ff5e00;stop-opacity:1;"
         offset="0"
         id="stop2488" />
    </linearGradient>
    <linearGradient
       id="linearGradient2484">
      <stop
         style="stop-color:#ff4800;stop-opacity:1;"
         offset="0"
         id="stop2482" />
    </linearGradient>
    <linearGradient
       gradientTransform="translate(-21.166667,79.375001)"
       id="linearGradient2478">
      <stop
         style="stop-color:#ff3200;stop-opacity:1;"
         offset="0"
         id="stop2476" />
    </linearGradient>
    <linearGradient
       id="linearGradient2171">
      <stop
         style="stop-color:#ffffff;stop-opacity:1;"
         offset="0"
         id="stop2169" />
    </linearGradient>
    <linearGradient
       id="linearGradient2165">
      <stop
         style="stop-color:#e2f2ff;stop-opacity:1;"
         offset="0"
         id="stop2163" />
    </linearGradient>
    <linearGradient
       id="linearGradient2159">
      <stop
         style="stop-color:#c6e5ff;stop-opacity:1;"
         offset="0"
         id="stop2157" />
    </linearGradient>
    <linearGradient
       id="linearGradient2153">
      <stop
         style="stop-color:#aad8ff;stop-opacity:1;"
         offset="0"
         id="stop2151" />
    </linearGradient>
    <linearGradient
       id="linearGradient2147">
      <stop
         style="stop-color:#8dcbff;stop-opacity:1;"
         offset="0"
         id="stop2145" />
    </linearGradient>
    <linearGradient
       id="linearGradient2141">
      <stop
         style="stop-color:#71bfff;stop-opacity:1;"
         offset="0"
         id="stop2139" />
    </linearGradient>
    <linearGradient
       id="linearGradient2135">
      <stop
         style="stop-color:#55b2ff;stop-opacity:1;"
         offset="0"
         id="stop2133" />
    </linearGradient>
    <linearGradient
       id="linearGradient2129">
      <stop
         style="stop-color:#38a5ff;stop-opacity:1;"
         offset="0"
         id="stop2127" />
    </linearGradient>
    <linearGradient
       id="linearGradient2123">
      <stop
         style="stop-color:#1c98ff;stop-opacity:1;"
         offset="0"
         id="stop2121" />
    </linearGradient>
    <linearGradient
       id="linearGradient2117">
      <stop
         style="stop-color:#008cff;stop-opacity:1;"
         offset="0"
         id="stop2115" />
    </linearGradient>
    <linearGradient
       id="linearGradient1705">
      <stop
         style="stop-color:#ffffff;stop-opacity:1;"
         offset="0"
         id="stop1703" />
    </linearGradient>
    <linearGradient
       id="linearGradient1699">
      <stop
         style="stop-color:#fff4e2;stop-opacity:1;"
         offset="0"
         id="stop1697" />
    </linearGradient>
    <linearGradient
       id="linearGradient1693">
      <stop
         style="stop-color:#ffe9c6;stop-opacity:1;"
         offset="0"
         id="stop1691" />
    </linearGradient>
    <linearGradient
       id="linearGradient1687">
      <stop
         style="stop-color:#ffdeaa;stop-opacity:1;"
         offset="0"
         id="stop1685" />
    </linearGradient>
    <linearGradient
       id="linearGradient1681">
      <stop
         style="stop-color:#ffd38d;stop-opacity:1;"
         offset="0"
         id="stop1679" />
    </linearGradient>
    <linearGradient
       id="linearGradient1675">
      <stop
         style="stop-color:#ffc871;stop-opacity:1;"
         offset="0"
         id="stop1673" />
    </linearGradient>
    <linearGradient
       id="linearGradient1669">
      <stop
         style="stop-color:#ffbd55;stop-opacity:1;"
         offset="0"
         id="stop1667" />
    </linearGradient>
    <linearGradient
       id="linearGradient1663">
      <stop
         style="stop-color:#ffb238;stop-opacity:1;"
         offset="0"
         id="stop1661" />
    </linearGradient>
    <linearGradient
       id="linearGradient1657">
      <stop
         style="stop-color:#ffa71c;stop-opacity:1;"
         offset="0"
         id="stop1655" />
    </linearGradient>
    <linearGradient
       id="linearGradient1651">
      <stop
         style="stop-color:#ff9c00;stop-opacity:1;"
         offset="0"
         id="stop1649" />
    </linearGradient>
    <linearGradient
       id="linearGradient1645">
      <stop
         style="stop-color:#e28a00;stop-opacity:1;"
         offset="0"
         id="stop1643" />
    </linearGradient>
    <linearGradient
       id="linearGradient1639">
      <stop
         style="stop-color:#c67900;stop-opacity:1;"
         offset="0"
         id="stop1637" />
    </linearGradient>
    <linearGradient
       id="linearGradient1633">
      <stop
         style="stop-color:#aa6800;stop-opacity:1;"
         offset="0"
         id="stop1631" />
    </linearGradient>
    <linearGradient
       id="linearGradient1627">
      <stop
         style="stop-color:#8d5600;stop-opacity:1;"
         offset="0"
         id="stop1625" />
    </linearGradient>
    <linearGradient
       id="linearGradient1621">
      <stop
         style="stop-color:#714500;stop-opacity:1;"
         offset="0"
         id="stop1619" />
    </linearGradient>
    <linearGradient
       id="linearGradient1615">
      <stop
         style="stop-color:#553400;stop-opacity:1;"
         offset="0"
         id="stop1613" />
    </linearGradient>
    <linearGradient
       id="linearGradient1609">
      <stop
         style="stop-color:#382200;stop-opacity:1;"
         offset="0"
         id="stop1607" />
    </linearGradient>
    <linearGradient
       id="linearGradient1603">
      <stop
         style="stop-color:#1c1100;stop-opacity:1;"
         offset="0"
         id="stop1601" />
    </linearGradient>
    <linearGradient
       id="linearGradient1597">
      <stop
         style="stop-color:#000000;stop-opacity:1;"
         offset="0"
         id="stop1595" />
    </linearGradient>
    <linearGradient
       id="linearGradient1038">
      <stop
         style="stop-color:#ffffff;stop-opacity:1;"
         offset="0"
         id="stop1036" />
    </linearGradient>
    <linearGradient
       id="linearGradient1032">
      <stop
         style="stop-color:#e2ffe6;stop-opacity:1;"
         offset="0"
         id="stop1030" />
    </linearGradient>
    <linearGradient
       id="linearGradient1026">
      <stop
         style="stop-color:#c6ffce;stop-opacity:1;"
         offset="0"
         id="stop1024" />
    </linearGradient>
    <linearGradient
       id="linearGradient1020">
      <stop
         style="stop-color:#aaffb6;stop-opacity:1;"
         offset="0"
         id="stop1018" />
    </linearGradient>
    <linearGradient
       id="linearGradient1014">
      <stop
         style="stop-color:#8dff9d;stop-opacity:1;"
         offset="0"
         id="stop1012" />
    </linearGradient>
    <linearGradient
       id="linearGradient1008">
      <stop
         style="stop-color:#71ff85;stop-opacity:1;"
         offset="0"
         id="stop1006" />
    </linearGradient>
    <linearGradient
       id="linearGradient1002">
      <stop
         style="stop-color:#55ff6d;stop-opacity:1;"
         offset="0"
         id="stop1000" />
    </linearGradient>
    <linearGradient
       id="linearGradient996">
      <stop
         style="stop-color:#38ff54;stop-opacity:1;"
         offset="0"
         id="stop994" />
    </linearGradient>
    <linearGradient
       id="linearGradient990">
      <stop
         style="stop-color:#1cff3c;stop-opacity:1;"
         offset="0"
         id="stop988" />
    </linearGradient>
    <linearGradient
       id="linearGradient984">
      <stop
         style="stop-color:#00ff24;stop-opacity:1;"
         offset="0"
         id="stop982" />
    </linearGradient>
    <linearGradient
       id="linearGradient978">
      <stop
         style="stop-color:#00e220;stop-opacity:1;"
         offset="0"
         id="stop976" />
    </linearGradient>
    <linearGradient
       id="linearGradient972">
      <stop
         style="stop-color:#00c61c;stop-opacity:1;"
         offset="0"
         id="stop970" />
    </linearGradient>
    <linearGradient
       id="linearGradient966">
      <stop
         style="stop-color:#00aa18;stop-opacity:1;"
         offset="0"
         id="stop964" />
    </linearGradient>
    <linearGradient
       id="linearGradient960">
      <stop
         style="stop-color:#008d14;stop-opacity:1;"
         offset="0"
         id="stop958" />
    </linearGradient>
    <linearGradient
       id="linearGradient954">
      <stop
         style="stop-color:#007110;stop-opacity:1;"
         offset="0"
         id="stop952" />
    </linearGradient>
    <linearGradient
       id="linearGradient948">
      <stop
         style="stop-color:#00550c;stop-opacity:1;"
         offset="0"
         id="stop946" />
    </linearGradient>
    <linearGradient
       id="linearGradient942">
      <stop
         style="stop-color:#003808;stop-opacity:1;"
         offset="0"
         id="stop940" />
    </linearGradient>
    <linearGradient
       id="linearGradient936">
      <stop
         style="stop-color:#001c04;stop-opacity:1;"
         offset="0"
         id="stop934" />
    </linearGradient>
    <linearGradient
       id="linearGradient930">
      <stop
         style="stop-color:#000000;stop-opacity:1;"
         offset="0"
         id="stop928" />
    </linearGradient>
    <radialGradient
       gradientUnits="userSpaceOnUse"
       gradientTransform="matrix(0.004197,0.52612994,-0.56881324,0.0018994,59.696534,73.058303)"
       r="180.7104"
       fy="55.599346"
       fx="109.7235"
       cy="55.599346"
       cx="109.7235"
       id="radialGradient1104"
       xlink:href="#linearGradient1102"
       inkscape:collect="always" />
    <inkscape:path-effect
       lpeversion="1"
       is_visible="true"
       id="path-effect895"
       effect="spiro" />
    <inkscape:path-effect
       lpeversion="1"
       is_visible="true"
       id="path-effect891"
       effect="spiro" />
    <inkscape:path-effect
       lpeversion="1"
       is_visible="true"
       id="path-effect887"
       effect="spiro" />
    <inkscape:path-effect
       fuse_tolerance="0"
       hide_knot="false"
       vertical_pattern="false"
       prop_units="false"
       tang_offset="0"
       normal_offset="0"
       spacing="0"
       scale_y_rel="false"
       prop_scale="1"
       copytype="single_stretched"
       pattern="M 0,5 C 0,2.24 2.24,0 5,0 7.76,0 10,2.24 10,5 10,7.76 7.76,10 5,10 2.24,10 0,7.76 0,5 Z"
       lpeversion="1"
       is_visible="true"
       id="path-effect883"
       effect="skeletal" />
    <inkscape:path-effect
       fuse_tolerance="0"
       hide_knot="false"
       vertical_pattern="false"
       prop_units="false"
       tang_offset="0"
       normal_offset="0"
       spacing="0"
       scale_y_rel="false"
       prop_scale="1"
       copytype="single_stretched"
       pattern="m -6.5193896,9.2825753 c 0,-2.1030865 2.2735104,-3.8099393 5.0748001,-3.8099393 2.8012894,0 5.0748005,1.7068528 5.0748005,3.8099393 0,2.1030867 -2.2735111,3.8099377 -5.0748005,3.8099377 -2.8012897,0 -5.0748001,-1.706851 -5.0748001,-3.8099377 z"
       lpeversion="1"
       is_visible="true"
       id="path-effect875"
       effect="skeletal" />
    <inkscape:path-effect
       lpeversion="1"
       is_visible="true"
       id="path-effect861"
       effect="spiro" />
    <inkscape:path-effect
       fuse_tolerance="0"
       hide_knot="false"
       vertical_pattern="false"
       prop_units="false"
       tang_offset="0"
       normal_offset="0"
       spacing="0"
       scale_y_rel="false"
       prop_scale="1"
       copytype="single_stretched"
       pattern="m 10.377498,12.475576 c 0,-1.912724 2.048171,-3.4650803 4.571811,-3.4650803 2.523639,0 4.57181,1.5523563 4.57181,3.4650803 0,1.912725 -2.048171,3.46508 -4.57181,3.46508 -2.52364,0 -4.571811,-1.552355 -4.571811,-3.46508 z"
       lpeversion="1"
       is_visible="true"
       id="path-effect857"
       effect="skeletal" />
    <inkscape:path-effect
       fuse_tolerance="0"
       hide_knot="false"
       vertical_pattern="false"
       prop_units="false"
       tang_offset="0"
       normal_offset="0"
       spacing="0"
       scale_y_rel="false"
       prop_scale="1"
       copytype="single_stretched"
       pattern="M 0,5 C 0,2.24 2.24,0 5,0 7.76,0 10,2.24 10,5 10,7.76 7.76,10 5,10 2.24,10 0,7.76 0,5 Z"
       lpeversion="1"
       is_visible="true"
       id="path-effect843"
       effect="skeletal" />
    <inkscape:path-effect
       fuse_tolerance="0"
       hide_knot="false"
       vertical_pattern="false"
       prop_units="false"
       tang_offset="0"
       normal_offset="0"
       spacing="0"
       scale_y_rel="false"
       prop_scale="1"
       copytype="single_stretched"
       pattern="M 0,5 C 0,2.24 2.24,0 5,0 7.76,0 10,2.24 10,5 10,7.76 7.76,10 5,10 2.24,10 0,7.76 0,5 Z"
       lpeversion="1"
       is_visible="true"
       id="path-effect839"
       effect="skeletal" />
    <clipPath
       clipPathUnits="userSpaceOnUse"
       id="clipPath20">
      <path
         d="M 0,980 H 1400 V 0 H 0 Z"
         id="path18"
         inkscape:connector-curvature="0" />
    </clipPath>
    <style
       type="text/css"
       id="style2-3">
   
    .fil0 {fill:black}
   
  </style>
    <style
       id="style2-36"
       type="text/css">
   
    .fil0 {fill:black}
   
  </style>
    <clipPath
       id="clipPath1944"
       clipPathUnits="userSpaceOnUse">
      <rect
         ry="5.5811737e-16"
         rx="5.5811737e-16"
         y="46.197548"
         x="9.4563332"
         height="95.250008"
         width="95.250008"
         id="rect1946"
         style="display:inline;opacity:0.405968;fill:#0000ff;fill-rule:evenodd;stroke-width:0.264583" />
    </clipPath>
    <clipPath
       id="clipPath1967"
       clipPathUnits="userSpaceOnUse">
      <rect
         ry="5.5811737e-16"
         rx="5.5811737e-16"
         y="107.54566"
         x="15.84628"
         height="33.866673"
         width="33.866673"
         id="rect1969"
         style="opacity:0.469875;fill:#0000ff;fill-rule:evenodd;stroke-width:0.264583" />
    </clipPath>
  </defs>
  <sodipodi:namedview
     inkscape:current-layer="g1500"
     inkscape:window-maximized="0"
     inkscape:window-y="26"
     inkscape:window-x="0"
     inkscape:cy="254.9685"
     inkscape:cx="254.44526"
     inkscape:zoom="1.10798"
     inkscape:showpageshadow="false"
     borderlayer="true"
     inkscape:pagecheckerboard="true"
     showgrid="false"
     id="namedview3"
     inkscape:window-height="710"
     inkscape:window-width="1362"
     inkscape:pageshadow="2"
     inkscape:pageopacity="0"
     guidetolerance="10"
     gridtolerance="10"
     objecttolerance="10"
     borderopacity="1"
     inkscape:document-rotation="0"
     bordercolor="#666666"
     pagecolor="#999999">
    <inkscape:grid
       originy="-196.43501"
       originx="-24.786245"
       type="xygrid"
       id="grid1891" />
  </sodipodi:namedview>
  <g
     transform="translate(-16.669306,-108.09149)"
     inkscape:groupmode="layer"
     id="layer5"
     inkscape:label="logo"
     style="display:inline">
    <g
       style="stroke-width:0.249999"
       transform="matrix(3.9999994,0,0,3.9999994,-47.538832,-322.63693)"
       clip-path="url(#clipPath1967)"
       id="g1500">
      <rect
         style="display:inline;fill:url(#radialGradient1104);fill-opacity:1;fill-rule:evenodd;stroke-width:0.066146"
         id="rect1070"
         width="33.866673"
         height="33.866673"
         x="16.052034"
         y="107.68212" />
      <g
         transform="matrix(0.33658298,0,0,0.32953488,14.665569,95.123511)"
         style="display:inline;stroke-width:0.750655"
         id="g1486">
        <g
           style="stroke-width:0.750655"
           inkscape:label="Image"
           id="g10"
           transform="matrix(0.26458333,0,0,0.26458333,20.106544,105.86918)">
          <path
             inkscape:connector-curvature="0"
             d="m 178.80067,89.987545 -1.67233,6.129348 1.55087,-0.01595 c 1.81612,2.601532 0.57792,-2.777178 0.12146,-6.113398 z m -3.78843,11.980915 -0.26113,8.02597 2.64925,-0.90569 z M 80.408165,78.835719 c 14.662133,2.011046 14.687021,0.296242 18.711815,-0.400402 L 98.569223,73.759664 C 92.37566,74.239061 86.160419,74.530517 80.408165,78.835719 Z M 124.97368,74.76972 c 0.16941,4.80914 3.7331,4.933039 7.28083,5.078969 l 6.4062,5.177919 c 1.61918,-1.579265 2.00032,-3.921066 2.26926,-6.331973 l -5.96871,-4.225073 c -3.79487,-1.179438 -7.48177,-2.062209 -9.98758,0.300158 z m 143.13341,6.753189 c -6.37366,1.434899 -2.21748,2.718891 6.95911,3.930934 5.33622,-1.444077 8.22388,-4.022285 7.91691,-8.080189 l -8.89977,2.627122 c 4.87531,2.595698 -0.51897,2.068495 -5.97625,1.522133 z m -71.46129,3.102532 -8.58875,9.415098 1.2027,0.796337 c 10.82158,-8.629309 5.3381,-7.066451 7.38605,-10.211435 z m -64.31034,2.468971 c -1.95727,0.989665 -3.12838,2.847215 -3.45578,5.636194 l 3.67836,0.902353 4.88411,-4.430241 z m -16.20474,-5.495145 c -2.0622,2.519845 -0.58455,4.212665 8.90195,4.034362 l 3.64062,-0.05892 z m 67.87447,-5.734762 -3.47085,5.998637 1.65744,2.846646 4.91904,-4.90501 6.73024,-1.370192 11.0864,-3.972595 c -6.98462,0.265776 -14.11043,-2.174137 -20.92227,1.402514 z m -40.80904,8.796635 1.49755,-7.369076 8.84703,-1.497021 c 0.91594,6.194548 8.92519,9.734803 15.1748,13.933511 l 4.56369,5.66035 -4.23942,3.573521 C 160.2178,93.557833 147.2443,88.168119 143.19615,84.66114 Z m -5.64982,10.127785 3.91608,-4.367642 13.53538,6.291088 z m 53.63434,4.529698 9.54374,-12.323229 c 8.80593,1.055043 15.03875,-2.565905 21.01707,-6.649333 l 24.53554,-3.87081 11.08826,0.901092 2.01373,3.102994 c 0.58557,2.172983 1.60243,4.484064 0.6806,6.174384 l -11.98535,4.687736 c -10.52709,0.187211 -20.2819,1.572826 -31.58293,0.559071 z M 32.171119,72.320596 c -1.238771,-0.257353 4.933931,-5.445804 12.817799,-6.682961 6.200934,-0.973066 -1.018905,-1.725332 -1.018905,-1.725332 l 9.167695,-2.223772 7.185671,-4.475087 -2.399322,-1.563704 C 69.7184,47.127377 86.346769,45.184461 103.10771,43.421985 l -1.31993,-4.384113 c 6.32238,-5.514761 14.81579,-4.218877 23.77779,-5.726909 11.73968,-3.639225 21.11713,-11.201364 36.6402,-8.557556 l -3.44649,-2.30507 c 16.37112,-6.049238 33.0155,-1.243677 47.82282,2.510632 1.93126,0.647887 5.72416,1.030016 -4.99118,3.483268 20.73217,8.923207 34.44653,3.953746 49.04002,11.580534 1.85686,4.45138 5.94623,8.739504 14.63779,12.691083 11.99476,1.042709 20.32634,6.566757 28.05109,12.833179 l 20.7916,4.260647 c 0.90791,3.687115 -3.37307,1.849202 -6.73547,0.989377 6.34898,5.017101 1.50848,11.499282 -7.0896,5.122352 l -14.23033,4.088174 c -4.63221,8.409988 -10.32299,8.376784 -17.2402,6.278734 -4.13348,4.855973 -9.9233,3.977326 -14.89708,5.923988 -9.32739,4.617596 -20.25041,2.625738 -30.4267,3.726981 -11.25049,0.791882 -28.21342,2.51524 -36.49306,13.909724 -5.69511,6.02986 -6.01469,15.38426 -3.73429,25.98451 l -12.70816,0.26063 0.36074,-16.41111 C 164.26202,106.27102 154.89941,98.138982 140.73006,99.377678 l -15.93114,-5.61555 c 3.78577,-6.237987 0.23036,-5.339733 -2.29724,-5.4406 -3.68454,-0.585263 -7.41095,-0.449908 -10.80455,-6.041817 -7.2005,-0.472258 -13.7185,-1.860614 -22.978148,0.431082 -5.941528,-2.143544 -11.883056,-0.872916 -17.824584,1.898256 -2.519283,1.177319 -9.125016,0.05516 -15.037583,-9.984789 -4.387353,0.43941 -8.663558,1.196323 -12.066616,4.447443 -1.143631,-2.345776 -0.84706,-4.607314 3.071745,-6.656983 -5.39731,1.244706 -10.885966,2.722367 -14.690825,-0.09412 z"
             style="fill:none;stroke:#000000;stroke-width:0.750655px;stroke-linecap:butt;stroke-linejoin:miter;stroke-opacity:1"
             id="path863" />
          <path
             transform="translate(31.509895,19.071604)"
             sodipodi:nodetypes="ccccccsccccssscccsccccsscccsccscsccccssccsssssssscssscccssscscscscssccccsccccssssccsccccscscccccsscscsccccccsscccsccsscsccsccccsccsccccccscccccccccccccccccccscccccccsscccscssccscccccccccsssssccsccsssssccscscscsccscs"
             inkscape:connector-curvature="0"
             id="path852"
             d="m 139.87406,108.36738 0.21561,-7.9298 -1.1835,-2.153107 c -2.35555,-4.285398 -4.47547,-7.1524 -7.66848,-10.370891 -3.63364,-3.66265 -6.58279,-5.589076 -10.61053,-6.930949 -2.8683,-0.955591 -8.37153,-1.741379 -10.02426,-1.431327 -0.8126,0.152446 -2.85829,-0.427704 -8.38921,-2.379158 -4.023004,-1.419421 -7.43079,-2.652607 -7.572859,-2.740412 -0.14207,-0.0878 -0.02613,-0.715323 0.257642,-1.394488 0.667992,-1.598729 0.700258,-3.104052 0.07983,-3.724477 -0.30791,-0.30791 -1.76969,-0.615944 -3.894956,-0.820762 -5.396687,-0.520103 -7.608611,-1.614027 -9.929252,-4.910595 -0.677433,-0.96232 -0.738812,-0.976313 -6.470879,-1.475237 -6.124795,-0.533105 -10.837283,-0.411334 -15.014964,0.38799 -2.04278,0.390848 -2.686868,0.387644 -4.263007,-0.02121 -3.965855,-1.02873 -8.935312,-0.452159 -14.174218,1.644534 -1.583188,0.633615 -3.316135,1.085652 -4.12037,1.074794 -3.267042,-0.04412 -7.751004,-3.327604 -10.962167,-8.027305 l -1.596115,-2.335997 -1.394735,0.200853 c -4.304039,0.619807 -7.701862,1.73712 -9.777636,3.215201 l -1.009615,0.718921 v -1.168795 c 0,-1.201098 0.672396,-2.140185 2.497862,-3.488592 0.605688,-0.447401 0.827661,-0.831254 0.643333,-1.112504 -0.222499,-0.33949 -0.956363,-0.28697 -3.504431,0.250808 -4.7497469,1.002444 -10.0394487,0.73433 -10.4609687,-0.53023 -0.162615,-0.487847 3.8857646,-3.09328 6.3632581,-4.095232 1.2095603,-0.489173 3.4612096,-1.165192 5.0036646,-1.50226 1.542455,-0.337072 2.973522,-0.717339 3.180149,-0.845039 0.574,-0.354754 0.44739,-1.210436 -0.216814,-1.465315 -0.376235,-0.144375 0.598768,-0.505525 2.671212,-0.989438 2.826261,-0.659935 3.79822,-1.097258 7.251554,-3.262765 2.193313,-1.375379 3.987362,-2.577535 3.986775,-2.67146 -5.8e-4,-0.09393 -0.494994,-0.451999 -1.098685,-0.795717 l -1.097618,-0.624944 0.843618,-0.650638 c 1.27866,-0.986167 5.64293,-3.207296 8.630287,-4.392262 6.906676,-2.739601 19.385828,-5.197799 32.344989,-6.371457 1.408877,-0.127596 2.659441,-0.287282 2.77903,-0.354859 0.119589,-0.06758 -0.08892,-1.12652 -0.463345,-2.353208 -0.816254,-2.674187 -0.738689,-2.81865 2.28938,-4.263814 2.916905,-1.39211 5.499218,-1.922028 12.472235,-2.559436 3.287381,-0.300502 6.880544,-0.772235 7.98481,-1.048297 1.104263,-0.276061 4.968121,-1.725012 8.586346,-3.219891 7.6777,-3.172056 10.59056,-4.1811045 14.33876,-4.967116 2.93301,-0.6150625 9.22108,-0.8195472 11.86872,-0.3859641 1.4747,0.2414997 1.62235,0.2046599 1.62235,-0.404801 0,-0.383315 -0.47112,-0.9687655 -1.09997,-1.3669266 l -1.09996,-0.6964472 1.01458,-0.3962836 c 2.39804,-0.9366503 7.44541,-1.7384938 12.13881,-1.9284132 5.39115,-0.2181538 10.48727,0.1838446 16.36956,1.2912821 6.00663,1.1308487 17.83495,4.1296797 17.52222,4.4424071 -0.16121,0.1612046 -1.86925,0.7061699 -3.79565,1.211034 -1.92641,0.5048644 -3.3821,1.0263389 -3.23488,1.1588325 0.5518,0.4966127 7.56045,3.03547 10.68482,3.87054 4.82605,1.289889 9.87829,2.146395 18.44348,3.126725 8.843,1.012126 13.81619,2.031018 17.81127,3.649121 2.70682,1.096328 2.8645,1.221531 4.00728,3.181895 3.23179,5.543945 10.37138,10.309953 17.18875,11.47429 8.2392,1.407169 13.87736,4.125923 23.42027,11.293375 1.3406,1.006902 2.29984,1.269807 11.58806,3.176037 5.56956,1.143045 10.18438,2.251983 10.25516,2.464309 0.3045,0.913509 -1.88674,0.749499 -5.76014,-0.431127 -0.94872,-0.289173 -1.07467,0.8729 -0.17161,1.58325 0.97918,0.770221 1.92428,2.65828 1.92428,3.844203 0,1.071628 -1.44899,2.278607 -2.73549,2.278607 -1.2648,0 -3.64642,-0.86754 -5.20391,-1.895611 l -1.27926,-0.844407 -7.34083,2.102427 -7.34083,2.102428 -1.06474,1.659257 c -1.56691,2.441819 -4.16298,4.63227 -6.21081,5.240406 -2.26637,0.67304 -3.94326,0.64737 -7.1024,-0.108728 l -2.5867,-0.619096 -1.4546,1.290839 c -1.7028,1.511108 -4.11181,2.481133 -8.38904,3.377982 -3.60309,0.755493 -4.42764,1.002062 -7.18397,2.148246 -3.61995,1.505306 -6.63064,1.933587 -16.05213,2.283477 -21.9957,0.816859 -31.17417,2.386755 -39.55313,6.765217 -7.07846,3.698872 -12.33039,9.951326 -14.11164,16.799993 -0.92583,3.559668 0.14741,13.552178 1.27108,17.540048 0.15558,0.55213 -1.10627,-0.46275 -6.38351,-0.46275 h -5.71283 z m 5.49302,-17.522571 c 0.71476,-0.298648 1.22364,-0.722247 1.14025,-0.949174 -0.0828,-0.225403 -0.64641,-1.9068 -1.2524,-3.736435 -0.60599,-1.829634 -1.21226,-3.394875 -1.34726,-3.478311 -0.69783,-0.431281 -0.98241,0.703236 -1.18045,4.705957 l -0.21722,4.390411 0.78312,-0.19655 c 0.43071,-0.108103 1.364,-0.439259 2.07396,-0.735898 z m 26.29313,-13.458198 12.70497,-3.731321 7.6716,0.05198 c 4.21938,0.02859 11.51399,-0.1568 16.21025,-0.411979 l 8.53865,-0.463956 5.80628,-2.227147 c 3.19346,-1.224931 6.07525,-2.528236 6.40399,-2.896231 0.32874,-0.367996 0.5977,-1.052536 0.5977,-1.521198 0,-1.725289 -1.09275,-4.991596 -2.25617,-6.743837 l -1.19641,-1.801911 -5.87311,-0.422107 -5.8731,-0.422106 -12.10089,1.922344 -12.10089,1.92234 -2.15238,1.359353 c -5.97824,3.7756 -9.82695,5.110058 -15.64324,5.423959 l -3.74425,0.202073 -3.08667,3.986019 c -1.69768,2.192313 -4.05333,5.227803 -5.23478,6.745534 -1.18146,1.517732 -1.9745,2.759514 -1.76232,2.759514 0.21219,0 6.10303,-1.679095 13.09077,-3.731322 z m -32.30858,1.767433 c 0.84339,-0.704439 1.92703,-1.605615 2.40808,-2.002611 l 0.87464,-0.721813 -2.47266,-3.100664 c -2.14268,-2.686881 -2.96071,-3.408865 -6.1299,-5.410178 -7.59004,-4.793024 -10.28871,-7.294442 -11.09297,-10.282133 -0.46909,-1.742609 -0.41199,-1.736492 -6.2119,-0.665414 l -4.08432,0.75426 -0.813,4.072503 -0.813,4.072499 0.79877,0.622505 c 1.47737,1.151355 5.87022,3.596227 14.46061,8.048142 4.69626,2.433809 9.07659,4.754966 9.73407,5.158127 0.65747,0.403161 1.33327,0.733597 1.50178,0.734297 0.1685,6.83e-4 0.99641,-0.575082 1.8398,-1.27952 z m -15.70372,-1.680608 c -0.0584,-0.284006 -3.10796,-1.907623 -6.93521,-3.69243 l -6.83092,-3.185535 -2.4604,2.614251 c -1.35321,1.437837 -2.46751,2.72952 -2.4762,2.870408 -0.009,0.140887 0.32999,0.265955 0.75266,0.277929 0.42266,0.01199 4.53402,0.444762 9.13635,0.961753 4.60234,0.516995 8.49166,0.877107 8.64295,0.800252 0.15129,-0.07685 0.22814,-0.367838 0.17077,-0.646628 z m 24.90027,0.336122 c 0.29542,-0.769862 -0.4566,-6.605657 -0.90961,-7.058666 -0.24216,-0.24216 -0.4695,-0.245511 -0.70462,-0.01038 -0.29866,0.298661 -2.0275,5.9831 -2.03947,6.705808 -0.002,0.140888 0.41842,0.258513 0.93501,0.261389 0.51659,0.0027 1.1698,0.154218 1.45157,0.336317 0.73206,0.473092 1.01574,0.4206 1.26712,-0.234461 z m 12.1441,-3.679755 c 3.54365,-3.023608 4.44649,-4.284053 4.69667,-6.557004 0.34392,-3.124473 -0.18681,-2.952751 -4.12038,1.333174 -1.94044,2.114245 -3.99867,4.352269 -4.57385,4.973384 l -1.04578,1.129302 0.85387,0.656219 c 0.46962,0.360922 1.02253,0.659638 1.22867,0.663815 0.20615,0.0042 1.53851,-0.985323 2.9608,-2.19889 z m -56.59392,-1.450232 c 1.58176,-1.447643 2.76163,-2.73051 2.62194,-2.850816 -0.13969,-0.120306 -1.54012,-0.727961 -3.11206,-1.350343 -2.69717,-1.067902 -2.90868,-1.10152 -3.757005,-0.597211 -1.206139,0.717025 -2.704242,3.18267 -2.969442,4.887244 l -0.215417,1.384569 2.167602,0.541064 c 1.192182,0.297582 2.217292,0.558277 2.278032,0.579317 0.0607,0.02104 1.40459,-1.146178 2.98635,-2.593824 z m -6.683014,-6.16969 c 0,-0.484931 -1.23431,-0.992298 -6.233215,-2.56218 -3.428268,-1.076628 -6.421386,-1.957246 -6.651376,-1.956925 -0.598184,6.83e-4 -1.533122,1.965577 -1.293941,2.719174 0.546515,1.721915 3.008864,2.351691 9.311501,2.381546 4.437598,0.021 4.867031,-0.0303 4.867031,-0.581615 z M 247.22643,65.569222 c 2.54149,-1.23485 3.80705,-2.516446 4.51094,-4.568082 0.40487,-1.18008 0.54754,-3.449882 0.21685,-3.449882 -0.34348,0 -10.51458,3.068194 -10.66295,3.216561 -0.0817,0.08169 0.32684,0.394353 0.90785,0.694804 0.581,0.300451 1.05637,0.621904 1.05637,0.71434 0,0.09244 -1.69111,0.06535 -3.75802,-0.06018 -3.22776,-0.19604 -3.95292,-0.140365 -5.13921,0.394575 -1.74371,0.786307 -1.72863,1.772419 0.0404,2.63778 1.4684,0.718316 8.34148,1.988683 9.53996,1.76329 0.46962,-0.08832 1.94915,-0.692765 3.28784,-1.343205 z M 109.30414,63.430874 c 0.20742,-0.697809 0.47615,-1.895942 0.59718,-2.662515 l 0.22005,-1.393767 -2.90342,-2.076795 c -3.76113,-2.690307 -3.73402,-2.677304 -6.93448,-3.325801 -2.969444,-0.601688 -4.850509,-0.406166 -6.501805,0.675804 -0.787195,0.515789 -0.868415,0.750752 -0.718691,2.079099 0.322255,2.859038 1.813414,4.092015 5.402568,4.467156 1.983228,0.207288 2.263278,0.35834 5.387918,2.906054 l 3.29595,2.687401 0.8888,-1.043946 c 0.48884,-0.57417 1.0585,-1.614877 1.26593,-2.31269 z m 44.1172,0.448197 c 2.54984,-2.533202 2.58968,-2.556393 5.30152,-3.085998 1.5028,-0.293487 5.45998,-1.488775 8.79373,-2.656193 8.19489,-2.869697 8.16372,-3.073542 -0.55793,-3.648316 -7.16637,-0.472283 -9.45867,-0.288757 -13.01556,1.042043 -1.74911,0.654426 -1.90344,0.818078 -3.73129,3.956531 l -1.90672,3.273869 1.05001,1.835222 c 0.57751,1.009374 1.1506,1.835226 1.27355,1.835226 0.12294,0 1.37965,-1.148572 2.79269,-2.552384 z M 66.087676,60.414948 c 2.167899,-0.59606 2.304083,-0.690753 2.148441,-1.493885 -0.0914,-0.471617 -0.269381,-1.760813 -0.395517,-2.864881 l -0.229338,-2.007396 -3.153891,0.23151 c -6.622577,0.486126 -12.916857,2.477073 -16.035933,5.072334 l -1.006694,0.837628 3.568289,0.406423 c 1.962557,0.223531 3.875679,0.462993 4.25138,0.532139 1.798233,0.330954 8.705605,-0.123377 10.853263,-0.713872 z"
             style="fill:#000000;fill-opacity:1;stroke:#000000;stroke-width:0.600525;stroke-miterlimit:4;stroke-dasharray:none;stroke-opacity:1" />
        </g>
      </g>
    </g>
  </g>
  <style
     type="text/css"
     id="style2">
	.st0{display:none;}
	.st1{display:inline;}
	.st2{fill:none;stroke:#B3B3B3;stroke-width:0.1;stroke-miterlimit:10;}
</style>
  <style
     type="text/css"
     id="style2-5">
	.st0{fill-rule:evenodd;clip-rule:evenodd;}
</style>
</svg>
