<?xml version="1.0" encoding="UTF-8" standalone="no"?>
<svg
   xmlns:dc="http://purl.org/dc/elements/1.1/"
   xmlns:cc="http://creativecommons.org/ns#"
   xmlns:rdf="http://www.w3.org/1999/02/22-rdf-syntax-ns#"
   xmlns:svg="http://www.w3.org/2000/svg"
   xmlns="http://www.w3.org/2000/svg"
   xmlns:sodipodi="http://sodipodi.sourceforge.net/DTD/sodipodi-0.dtd"
   xmlns:inkscape="http://www.inkscape.org/namespaces/inkscape"
   inkscape:version="1.1-dev (1:0.92.0+devel+202001211713+adc4088)"
   height="89.999962"
   width="82.630493"
   sodipodi:docname="noun_Phone_1836922.svg"
   id="svg14"
   version="1.1"
   clip-rule="evenodd"
   fill-rule="evenodd"
   y="0px"
   x="0px"
   viewBox="0 0 82.630493 89.999962"
   style="image-rendering:optimizeQuality;shape-rendering:geometricPrecision;text-rendering:geometricPrecision"
   xml:space="preserve"><metadata
     id="metadata18"><rdf:RDF><cc:Work
         rdf:about=""><dc:format>image/svg+xml</dc:format><dc:type
           rdf:resource="http://purl.org/dc/dcmitype/StillImage" /></cc:Work></rdf:RDF></metadata><sodipodi:namedview
     inkscape:current-layer="svg14"
     inkscape:window-maximized="1"
     inkscape:window-y="26"
     inkscape:window-x="0"
     inkscape:cy="44.999981"
     inkscape:cx="41.315247"
     inkscape:zoom="6.3222249"
     showgrid="false"
     id="namedview16"
     inkscape:window-height="714"
     inkscape:window-width="1366"
     inkscape:pageshadow="2"
     inkscape:pageopacity="0"
     guidetolerance="10"
     gridtolerance="10"
     objecttolerance="10"
     borderopacity="1"
     bordercolor="#666666"
     pagecolor="#ffffff" /><defs
     id="defs4"><style
       id="style2"
       type="text/css">
   
    .fil0 {fill:black}
   
  </style></defs><g
     id="g845"><g
       id="g8"
       transform="translate(-8.6829182,-4.99814)"><path
         class="fil0"
         d="m 67.8301,20.0293 c -0.06851,0.647249 -0.167718,1.31103 -0.261026,1.98191 7.09966,2.9764 14.621,7.25203 19.2486,11.8158 1.42678,-1.45395 2.76026,-3.25751 3.43231,-4.96657 2.84175,-7.22722 -0.377956,-12.4631 -5.33036,-15.6285 -17.1781,-10.9784 -52.6658,-10.9784 -69.8439,0 -4.9524,3.16538 -8.17093,8.40125 -5.32918,15.6285 0.670871,1.70907 2.00435,3.51263 3.43231,4.96657 4.62641,-4.56382 12.1489,-8.83944 19.2486,-11.8158 -0.09449,-0.670871 -0.192521,-1.33466 -0.262207,-1.98191 9.63197,-3.08979 26.0341,-3.08979 35.6648,0 z M 37.1306,34.1637 v -9.72055 c 0,-4.03113 7.91463,-4.03113 7.91463,0 v 7.65478 c 1.64765,-0.242128 3.30357,-0.370869 4.9524,-0.370869 1.65001,0 3.30593,0.12756 4.95358,0.370869 v -7.65478 c 0,-4.03113 7.91345,-4.03113 7.91345,0 v 9.72055 c 13.6974,5.165 25.1057,17.9541 25.1341,32.6117 0.03307,16.519 -1.85435,28.1317 -15.6025,28.2227 H 49.99766 27.60026 C 13.85216,94.90715 11.96466,83.2945 11.99776,66.7754 12.02611,52.1178 23.43446,39.3299 37.13066,34.1637 Z m 12.867,8.89377 c 11.3647,0 20.5809,7.53667 20.5809,16.8308 0,9.29299 -9.21621,16.8297 -20.5809,16.8297 -11.3635,0 -20.5797,-7.53667 -20.5797,-16.8297 0,-9.29417 9.21621,-16.8308 20.5797,-16.8308 z m -17.36,-19.2994 c 0.198427,2.23112 0.02008,4.44807 -1.77285,6.30714 -3.29648,3.41696 -6.6095,5.05161 -10.8024,6.24926 -2.05159,0.585831 -4.1894,-0.172442 -5.55949,-1.26497 4.8272,-4.84138 11.8867,-8.85952 18.1348,-11.2914 z m 34.7211,0 c -0.198427,2.23112 -0.02126,4.44807 1.77167,6.30714 3.29648,3.41696 6.6095,5.05161 10.8024,6.24926 2.05277,0.585831 4.19058,-0.172442 5.55949,-1.26497 -4.82602,-4.84138 -11.8855,-8.85952 -18.1336,-11.2914 z"
         id="path6"
         inkscape:connector-curvature="0" /></g></g></svg>
