<?xml version="1.0" encoding="UTF-8" standalone="no"?>
<svg
   xmlns:dc="http://purl.org/dc/elements/1.1/"
   xmlns:cc="http://creativecommons.org/ns#"
   xmlns:rdf="http://www.w3.org/1999/02/22-rdf-syntax-ns#"
   xmlns:svg="http://www.w3.org/2000/svg"
   xmlns="http://www.w3.org/2000/svg"
   xmlns:sodipodi="http://sodipodi.sourceforge.net/DTD/sodipodi-0.dtd"
   xmlns:inkscape="http://www.inkscape.org/namespaces/inkscape"
   inkscape:version="1.1-dev (1:0.92.0+devel+202001211713+adc4088)"
   height="456.48361"
   width="478.47531"
   sodipodi:docname="noun_whatsapp_2584262.svg"
   id="svg20"
   xml:space="preserve"
   enable-background="new 0 0 500 500"
   viewBox="0 0 478.47531 456.48361"
   y="0px"
   x="0px"
   version="1.1"><metadata
     id="metadata26"><rdf:RDF><cc:Work
         rdf:about=""><dc:format>image/svg+xml</dc:format><dc:type
           rdf:resource="http://purl.org/dc/dcmitype/StillImage" /></cc:Work></rdf:RDF></metadata><defs
     id="defs24" /><sodipodi:namedview
     inkscape:current-layer="svg20"
     inkscape:window-maximized="1"
     inkscape:window-y="26"
     inkscape:window-x="0"
     inkscape:cy="228.24181"
     inkscape:cx="239.23766"
     inkscape:zoom="1.2464851"
     showgrid="false"
     id="namedview22"
     inkscape:window-height="714"
     inkscape:window-width="1366"
     inkscape:pageshadow="2"
     inkscape:pageopacity="0"
     guidetolerance="10"
     gridtolerance="10"
     objecttolerance="10"
     borderopacity="1"
     bordercolor="#666666"
     pagecolor="#ffffff" /><g
     transform="translate(-10.704299,-21.658498)"
     id="g858"><g
       id="g8"><path
         d="m 338.2,357.5 c -25.3,25.3 -89.6,2 -143.6,-52 -54,-54 -77.3,-118.3 -52,-143.6 l 26.2,-26.2 c 4.6,-4.6 12,-4.6 16.6,0 l 26.8,26.8 c 4.6,4.6 4.6,12 0,16.6 L 194,197.3 c -14.1,14.1 -1.7,49.8 28.3,79.9 30,30.1 66.5,43.1 80.6,29 L 321,288 c 4.6,-4.6 12,-4.6 16.6,0 l 26.8,26.8 c 4.6,4.6 4.6,12 0,16.6 z"
         id="path2"
         inkscape:connector-curvature="0" /><g
         id="g6"><path
           d="m 327.6,346.9 c -0.6,0.5 -3.8,3.1 -1.7,1.6 2.2,-1.5 -1.5,0.9 -2,1.2 -0.7,0.4 -2.2,1.5 -3.1,1.5 1.6,0 2.8,-0.9 1.1,-0.5 -0.9,0.2 -1.7,0.6 -2.5,0.8 -1.2,0.3 -2.4,0.6 -3.6,0.8 -4.2,0.9 2.3,0 -1.2,0.2 -3.2,0.2 -6.4,0.3 -9.7,0.1 -1.4,-0.1 -2.9,-0.3 -4.3,-0.4 4.2,0.4 -1.2,-0.3 -2.2,-0.5 -3.6,-0.7 -7.1,-1.6 -10.6,-2.7 -3.5,-1.1 -7,-2.3 -10.5,-3.6 -0.8,-0.3 -1.7,-0.7 -2.5,-1 2.6,1.1 -0.2,-0.1 -0.9,-0.4 -2.2,-1 -4.3,-2 -6.4,-3 -16.7,-8.3 -32.1,-18.9 -45.4,-30.3 -8.2,-7 -15.9,-14.4 -23.3,-22.2 -6.6,-7 -13.9,-15.5 -18.8,-22.1 -5.5,-7.5 -10.7,-15.2 -15.3,-23.3 -2.1,-3.6 -4.1,-7.4 -5.9,-11.1 -0.8,-1.7 -1.7,-3.4 -2.4,-5.2 0.1,0.2 -1.8,-4 -0.9,-2 0.7,1.7 -0.7,-1.7 -0.8,-2 -2.8,-7 -5,-14.2 -6.4,-21.6 -0.2,-1.3 -0.8,-5.1 -0.4,-1.6 -0.2,-1.6 -0.4,-3.2 -0.5,-4.9 -0.2,-3.2 0.1,-6.4 0.1,-9.6 0,-1.4 -0.6,-1.5 -0.2,1.1 -0.1,-0.4 0.2,-1.4 0.3,-1.8 0.3,-1.3 0.6,-2.7 1,-4 0.2,-0.6 0.4,-1.1 0.5,-1.7 0.8,-2.9 -0.1,0.9 -0.4,0.7 -0.2,-0.1 1.8,-3.6 2,-3.8 0.3,-0.5 0.7,-0.9 0.9,-1.4 0.9,-1.7 -0.7,0.2 -0.8,1 0.2,-0.8 1.7,-2 2.3,-2.5 0.7,-0.7 1.3,-1.3 2,-2 7.2,-7.2 14.4,-14.4 21.5,-21.5 0.4,-0.4 2.4,-1.9 2.5,-2.5 0,0 -1.4,0.6 -2,0.9 1,-0.4 2.4,-0.1 -0.2,-0.1 -1.6,-0.3 -1.9,-0.4 -0.8,-0.1 1,0.3 0.8,0.2 -0.6,-0.2 -0.1,-0.5 -1.2,-1.1 0.4,0.6 1.4,1.5 3,3 4.4,4.4 3.9,3.9 7.9,7.9 11.8,11.8 2.7,2.7 5.5,6.6 8.6,8.6 0,0 0.5,0.6 0.6,0.6 -0.5,0.1 -1,-2 -1,-2.1 0.4,0.8 0.3,2.6 0.1,-0.2 -0.1,-1 1,-2.5 -0.1,-0.2 -0.1,0.2 0.7,-2.3 1,-2.1 -0.1,0 -0.7,0.7 -0.8,0.8 -3.8,3.3 -7.2,7.2 -10.7,10.7 -2.6,2.6 -5.4,5.1 -7.8,7.9 -5.6,6.4 -8.2,14 -8.9,22.4 -1.5,16.3 5.9,33.4 14.2,47 11.3,18.7 26.7,34.6 44.2,47.6 22.9,17 59.8,33.9 83.7,9.9 3.8,-3.8 7.7,-7.7 11.5,-11.5 1.3,-1.3 2.7,-2.5 3.9,-3.9 0,0 0.8,-0.7 0.8,-0.8 0.1,0.4 -2,1 -2.1,1 2,-0.9 0.3,-0.5 -0.9,-0.2 -0.2,0 -0.5,-0.1 -0.7,-0.1 1.7,0.5 1.7,0.5 0,0 0,-0.1 -0.9,-0.6 -0.9,-0.6 0,0 0.5,0.5 0.6,0.6 0.9,1.4 2.6,2.6 3.7,3.7 3.8,3.8 7.7,7.7 11.5,11.5 3.3,3.3 6.4,6.7 9.8,9.8 1.3,1.2 1.1,1.6 0.3,-0.4 -0.7,-1.7 -0.1,3 -0.1,-0.8 0,-1 1,-2.4 -0.1,-0.2 0.3,-0.7 1.2,-1.9 0.8,-1.9 -0.6,0 -2,2 -2.4,2.4 -1.8,1.8 -3.6,3.6 -5.3,5.3 -4.1,4.1 -8.1,8.1 -12.2,12.2 -1.7,1.9 -3.8,3.9 -5.8,5.9 -5.7,5.7 -5.7,15.5 0,21.2 5.7,5.7 15.5,5.7 21.2,0 6.6,-6.6 13.2,-13.2 19.8,-19.8 2.4,-2.4 5,-4.8 7.3,-7.4 9.4,-10.8 8.8,-26.4 -0.9,-36.8 -6.4,-6.8 -13.2,-13.2 -19.8,-19.8 -2.3,-2.3 -4.5,-4.7 -6.9,-6.9 -10.4,-9.6 -26,-10.4 -36.8,-0.9 -6.7,5.9 -12.9,12.6 -19.1,19 -0.5,0.5 -2.6,1.9 -0.5,0.6 2.3,-1.5 -0.3,0.1 -0.6,0.2 -2,0.8 1.3,0.1 1.2,-0.4 0,0.1 -4.2,1.4 -4.3,1.2 -0.1,-0.2 4.1,-0.2 1.1,-0.2 -1,0 -2,0.1 -3,0.1 -0.7,0 -1.4,0 -2.1,-0.1 -0.3,0 -3.7,-0.5 -1.3,-0.1 2.6,0.4 -1.2,-0.3 -1.4,-0.3 -0.8,-0.2 -1.6,-0.3 -2.3,-0.5 -2,-0.5 -4,-1.1 -6,-1.8 -0.8,-0.3 -1.7,-0.6 -2.5,-0.9 -4.1,-1.5 2.5,1.3 -1.5,-0.6 -4,-1.9 -7.9,-4 -11.7,-6.3 -4.1,-2.5 -9,-5.9 -11.6,-7.9 -8.7,-6.9 -16.4,-14.8 -23.6,-23.3 -1.9,-2.2 -4.9,-6.5 -7.3,-10.1 -2.7,-4.2 -5.1,-8.5 -7.2,-13 -0.4,-0.8 -0.8,-1.7 -1.1,-2.5 1.1,2.6 0,-0.1 -0.2,-0.8 -0.6,-1.8 -1.3,-3.6 -1.8,-5.4 -0.5,-1.7 -0.8,-3.5 -1.2,-5.2 -0.2,-1 -0.3,-3.6 0,0.1 -0.1,-1.1 -0.2,-2.1 -0.2,-3.2 0,-1.5 0.2,-3 0.1,-4.5 -0.1,-1.9 -1.2,3.5 0,0.7 0.2,-0.5 0.3,-1.3 0.5,-1.7 0.9,-3.9 -1.2,2 0.4,-0.8 1.6,-2.8 -2.4,2.1 0.5,-0.7 3.2,-3.1 6.3,-6.3 9.4,-9.4 2.9,-2.9 6,-5.7 8.8,-8.8 9.7,-10.4 10.4,-26 0.9,-36.8 -6.2,-7.1 -13.4,-13.5 -20.1,-20.2 -2.5,-2.5 -4.9,-5.1 -7.5,-7.5 -9.2,-8.6 -23.1,-10.6 -33.8,-3.3 -8.5,5.8 -15.4,14.6 -22.6,21.8 -7.7,7.7 -14.7,14.9 -18.7,25.3 -5.3,13.9 -4,29.9 -0.7,44.2 4.1,17.8 12.3,34.8 21.8,50.3 23,37.6 55.9,70.5 93.3,93.8 15.4,9.6 32.3,17.8 49.9,22.2 14.3,3.6 30.5,5.2 44.7,0.2 7.1,-2.5 13.4,-6.2 18.9,-11.5 5.8,-5.6 5.7,-15.5 0,-21.2 -6.1,-6.1 -15.7,-5.9 -21.5,-0.3 z"
           id="path4"
           inkscape:connector-curvature="0" /></g></g><g
       id="g14"><g
         id="g12"><path
           d="m 105.4,416.8 c 37.5,34.5 84.9,55.7 135.7,60.4 43.8,4.1 88.5,-5.3 127.2,-25.9 75.4,-40 123.1,-121.8 120.8,-207.1 C 487,159.6 436.3,80.2 359.5,44 320.8,25.7 277.2,18 234.6,23.3 191.3,28.6 151.2,45.5 117.2,72.8 46.3,129.5 16.4,227.2 42,314.1 c 3.8,12.9 8.9,25.5 14.8,37.6 0,-5 0,-10.1 0,-15.1 -12.9,24.8 -25.8,49.5 -38.7,74.3 -1.9,3.6 -3.7,7.1 -5.6,10.7 -6,11.6 3.9,25.3 16.9,22 26.4,-6.7 52.9,-13.4 79.3,-20.1 3.7,-0.9 7.5,-1.9 11.2,-2.8 7.9,-2 12.6,-10.8 10.5,-18.5 -2.2,-8 -10.6,-12.5 -18.5,-10.5 -26.4,6.7 -52.9,13.4 -79.3,20.1 -3.7,0.9 -7.5,1.9 -11.2,2.8 5.6,7.3 11.3,14.7 16.9,22 11.7,-22 23.2,-44.1 34.7,-66.3 2.6,-4.9 5.1,-9.8 7.7,-14.7 0.6,-1.1 1.2,-2.3 1.8,-3.4 0.4,-0.8 0.6,-1.2 1,-2.2 2.7,-6.7 -0.2,-12 -3,-18 -11.6,-24.9 -17.7,-54 -17.7,-82.1 0,-5.8 0.2,-11.7 0.7,-17.5 0.2,-2.8 0.5,-5.5 0.8,-8.3 0.1,-0.7 0.2,-1.4 0.3,-2.1 0,0.2 -0.3,2.4 -0.1,0.6 0.2,-1.6 0.5,-3.2 0.7,-4.7 1.9,-11.3 4.8,-22.5 8.5,-33.4 0.9,-2.5 1.8,-5 2.7,-7.5 0.5,-1.2 1,-2.5 1.5,-3.7 0.6,-1.6 -0.1,0.3 -0.2,0.5 0.3,-0.8 0.7,-1.6 1.1,-2.4 2.2,-5 4.7,-10 7.3,-14.9 5.2,-9.7 11.2,-18.9 17.8,-27.6 1,-1.4 -0.2,0.2 -0.3,0.4 0.4,-0.5 0.8,-1 1.2,-1.5 0.8,-1 1.6,-2 2.5,-3.1 1.8,-2.2 3.7,-4.3 5.6,-6.5 3.6,-4.1 7.4,-8 11.4,-11.8 4.1,-3.9 8.4,-7.7 12.8,-11.3 1,-0.8 2,-1.6 3.1,-2.5 1.3,-1.1 -0.3,0.2 -0.4,0.3 0.5,-0.4 1,-0.8 1.6,-1.2 2.3,-1.7 4.6,-3.4 6.9,-5 9.1,-6.2 18.6,-11.7 28.5,-16.5 2.4,-1.1 4.8,-2.2 7.2,-3.3 2.6,-1.2 -1.4,0.5 1.3,-0.5 1.4,-0.6 2.9,-1.1 4.3,-1.7 5.2,-2 10.5,-3.8 15.9,-5.3 5.4,-1.6 10.9,-2.9 16.4,-4.1 2.9,-0.6 5.8,-1.1 8.7,-1.6 1.4,-0.2 2.7,-0.4 4.1,-0.6 -2.8,0.4 1.2,-0.1 2.2,-0.3 11.6,-1.3 23.3,-1.7 34.9,-1.1 5.8,0.3 11.5,0.8 17.3,1.5 -2.6,-0.3 0.5,0.1 1.4,0.2 1.4,0.2 2.7,0.4 4,0.7 2.9,0.5 5.8,1.1 8.7,1.7 10.9,2.4 21.7,5.7 32.1,9.8 0.6,0.2 3.8,1.5 2.5,1 -1.3,-0.5 1.9,0.8 2.5,1.1 2.8,1.3 5.6,2.6 8.4,4 4.9,2.5 9.7,5.1 14.5,7.9 4.7,2.8 9.3,5.8 13.8,9 1.1,0.8 2.1,1.5 3.2,2.3 0.5,0.4 3.2,2.4 2.1,1.6 -1.1,-0.8 1.6,1.3 2.1,1.7 1.2,1 2.4,1.9 3.5,2.9 8.3,7 16.2,14.7 23.3,22.9 1.7,2 3.4,4 5.1,6 0.8,1 1.6,2 2.5,3.1 -1.7,-2.1 0.7,1 1.2,1.7 3.3,4.4 6.3,8.9 9.2,13.6 3,4.8 5.9,9.8 8.5,14.9 1.2,2.4 2.4,4.7 3.5,7.1 0.6,1.2 1.1,2.4 1.7,3.6 0.3,0.6 0.5,1.2 0.8,1.8 0.1,0.3 1.2,2.8 0.5,1.3 -0.5,-1.3 0.8,2 1,2.5 0.5,1.2 1,2.5 1.4,3.7 1,2.7 2,5.5 2.9,8.2 1.7,5.3 3.3,10.7 4.6,16.2 1.3,5.5 2.4,11.1 3.3,16.7 0.1,0.9 0.6,4.1 0.2,1.4 0.2,1.4 0.3,2.7 0.5,4.1 0.3,3 0.6,6 0.8,9 0.8,11.9 0.6,23.8 -0.5,35.7 -0.1,1.4 -0.3,2.7 -0.4,4.1 -0.1,1 -0.6,4.1 -0.2,1.5 -0.4,2.9 -0.9,5.9 -1.4,8.8 -1,5.6 -2.3,11.1 -3.8,16.5 -1.5,5.4 -3.1,10.7 -5,16 -0.9,2.5 -1.9,5 -2.8,7.5 -0.2,0.6 -0.5,1.2 -0.8,1.9 0.1,-0.2 0.9,-2.1 0.2,-0.5 -0.6,1.4 -1.2,2.8 -1.9,4.2 -4.6,10 -9.9,19.7 -16,28.8 -1.4,2.2 -2.9,4.4 -4.5,6.5 -0.8,1.1 -1.5,2.1 -2.3,3.2 -0.4,0.5 -0.8,1 -1.2,1.6 -1.4,1.8 1.4,-1.7 -0.1,0.1 -3.5,4.5 -7.2,8.8 -11.1,13 -7.4,8 -15.4,15.4 -24,22.3 -0.5,0.4 -1,0.8 -1.5,1.2 0.2,-0.1 1.8,-1.4 0.4,-0.3 -1.1,0.8 -2.1,1.6 -3.2,2.3 -2.3,1.7 -4.6,3.3 -7,4.9 -4.6,3.1 -9.2,5.9 -14,8.6 -4.8,2.7 -9.7,5.2 -14.7,7.5 -1.2,0.6 -2.4,1.1 -3.6,1.6 -0.8,0.4 -3.7,1.5 -1.3,0.6 -2.7,1.1 -5.4,2.1 -8.1,3.1 -10.8,3.9 -21.9,7 -33.1,9.1 -2.7,0.5 -5.4,0.9 -8.1,1.4 -2.9,0.5 1.5,-0.1 -1.5,0.2 -1.6,0.2 -3.2,0.4 -4.8,0.5 -5.8,0.6 -11.6,0.9 -17.4,1 -6.7,0.1 -13.4,0 -20,-0.5 -3.3,-0.2 -6.6,-0.6 -9.8,-0.9 -1.8,-0.2 -0.4,0 -0.1,0 -0.8,-0.1 -1.6,-0.2 -2.4,-0.4 -1.9,-0.3 -3.7,-0.6 -5.6,-0.9 -27.1,-4.8 -49.3,-13.4 -72.2,-27.8 -5.3,-3.3 -10.4,-6.9 -15.4,-10.7 -1.4,-1 -0.3,-0.3 0,0 -0.6,-0.5 -1.2,-1 -1.8,-1.5 -1.2,-1 -2.4,-2 -3.6,-3 -2.6,-2.2 -5.1,-4.4 -7.6,-6.7 -6,-5.5 -15.3,-5.9 -21.2,0 -5.6,5.8 -6.1,15.9 -0.1,21.4 z"
           id="path10"
           inkscape:connector-curvature="0" /></g></g></g></svg>
